<svg width="35" height="34" viewBox="0 0 35 34" fill="none" xmlns="http://www.w3.org/2000/svg">
<rect width="34" height="34" rx="17" fill="white"/>
<path d="M17.0167 9.4248C14.2583 9.4248 12.0167 11.6665 12.0167 14.4248V16.8331C12.0167 17.3415 11.8 18.1165 11.5417 18.5498L10.5833 20.1415C9.99168 21.1248 10.4 22.2165 11.4833 22.5831C15.075 23.7831 18.95 23.7831 22.5417 22.5831C23.55 22.2498 23.9917 21.0581 23.4417 20.1415L22.4833 18.5498C22.2333 18.1165 22.0167 17.3415 22.0167 16.8331V14.4248C22.0167 11.6748 19.7667 9.4248 17.0167 9.4248Z" stroke="#1A202C" stroke-width="1.2" stroke-miterlimit="10" stroke-linecap="round"/>
<path d="M18.5583 9.6667C18.3 9.5917 18.0333 9.53337 17.7583 9.50003C16.9583 9.40003 16.1916 9.45837 15.475 9.6667C15.7166 9.05003 16.3166 8.6167 17.0166 8.6167C17.7166 8.6167 18.3166 9.05003 18.5583 9.6667Z" stroke="#1A202C" stroke-width="1.2" stroke-miterlimit="10" stroke-linecap="round" stroke-linejoin="round"/>
<path opacity="0.4" d="M19.5167 22.8833C19.5167 24.2583 18.3917 25.3833 17.0167 25.3833C16.3333 25.3833 15.7 25.1 15.25 24.65C14.8 24.2 14.5167 23.5666 14.5167 22.8833" stroke="#1A202C" stroke-width="1.2" stroke-miterlimit="10"/>
<rect x="24.1201" y="1.72021" width="10" height="10" rx="5" fill="#007AFF"/>
</svg>
