<svg width="133" height="120" viewBox="0 0 133 120" fill="none" xmlns="http://www.w3.org/2000/svg">
<path d="M130.244 50.6195L119.292 31.6519H55.301C49.4023 31.6519 43.4497 34.7416 43.4497 41.6441C43.4497 48.1786 48.7665 53.4954 55.301 53.4954H70.4688H75.3636H75.6592C80.1041 53.4954 84.4691 54.6852 88.2801 56.9346L88.2856 56.9365C95.8333 61.3925 100.522 69.602 100.522 78.358C100.522 91.6872 90.0647 101.362 75.6592 101.362H44.8291C48.7182 102.583 51.4193 106.286 51.5067 110.644C51.6108 115.828 55.8457 120 61.0547 120H89.7766C96.733 120 103.16 116.29 106.638 110.266L130.242 69.3826C133.596 63.5769 133.596 56.4234 130.244 50.6195Z" fill="white"/>
<path d="M87.5103 78.3578C87.5103 74.1825 85.272 70.2674 81.6711 68.1425L81.6692 68.1407C79.8604 67.0717 77.782 66.5066 75.6609 66.5066H75.3653H70.4705H55.3027C41.5924 66.5066 30.4383 55.3524 30.4383 41.6421C30.4383 28.3129 40.8953 18.6367 55.3027 18.6367H91.3306C88.3543 16.9004 86.3298 13.7084 86.3298 10.0146C86.3298 4.48395 81.8459 0 76.3153 0H42.9792C36.0228 0 29.5961 3.71061 26.1179 9.73385L2.51387 50.6175C-0.837955 56.4232 -0.837955 63.5749 2.51387 69.3806L13.4635 88.3464H75.6609C81.5596 88.3483 87.5103 85.2604 87.5103 78.3578Z" fill="#0C8CE9"/>
</svg>
