<svg width="14" height="15" viewBox="0 0 14 15" fill="none" xmlns="http://www.w3.org/2000/svg">
<path d="M6.70833 9.14062H4.08333C3.46449 9.14063 2.871 9.38646 2.43342 9.82404C1.99583 10.2616 1.75 10.8551 1.75 11.474V12.6406" stroke="#007AFF" stroke-linecap="round" stroke-linejoin="round"/>
<path d="M12.4706 10.0889C12.7029 9.85651 12.8335 9.54135 12.8335 9.21272C12.8335 8.88409 12.7029 8.56893 12.4706 8.33655C12.2382 8.10418 11.923 7.97363 11.5944 7.97363C11.2658 7.97363 10.9506 8.10418 10.7182 8.33655L8.37907 10.6769C8.24038 10.8155 8.13886 10.9868 8.0839 11.1751L7.59565 12.8492C7.58101 12.8994 7.58013 12.9526 7.59311 13.0033C7.60609 13.0539 7.63244 13.1002 7.66941 13.1371C7.70638 13.1741 7.75261 13.2005 7.80326 13.2134C7.85392 13.2264 7.90712 13.2255 7.95732 13.2109L9.63148 12.7226C9.81971 12.6677 9.99104 12.5662 10.1297 12.4275L12.4706 10.0889Z" stroke="#007AFF" stroke-linecap="round" stroke-linejoin="round"/>
<path d="M5.83333 6.80729C7.122 6.80729 8.16667 5.76262 8.16667 4.47396C8.16667 3.18529 7.122 2.14062 5.83333 2.14062C4.54467 2.14062 3.5 3.18529 3.5 4.47396C3.5 5.76262 4.54467 6.80729 5.83333 6.80729Z" stroke="#007AFF" stroke-linecap="round" stroke-linejoin="round"/>
</svg>
