<svg width="14" height="15" viewBox="0 0 14 15" fill="none" xmlns="http://www.w3.org/2000/svg">
<path d="M9.33325 6.80729L10.4999 7.97396L12.8333 5.64062" stroke="white" stroke-linecap="round" stroke-linejoin="round"/>
<path d="M9.33342 12.6406V11.474C9.33342 10.8551 9.08758 10.2616 8.65 9.82404C8.21241 9.38646 7.61892 9.14063 7.00008 9.14062H3.50008C2.88124 9.14063 2.28775 9.38646 1.85017 9.82404C1.41258 10.2616 1.16675 10.8551 1.16675 11.474V12.6406" stroke="white" stroke-linecap="round" stroke-linejoin="round"/>
<path d="M5.25008 6.80729C6.53875 6.80729 7.58341 5.76262 7.58341 4.47396C7.58341 3.18529 6.53875 2.14062 5.25008 2.14062C3.96142 2.14062 2.91675 3.18529 2.91675 4.47396C2.91675 5.76262 3.96142 6.80729 5.25008 6.80729Z" stroke="white" stroke-linecap="round" stroke-linejoin="round"/>
</svg>
