<svg width="16" height="16" viewBox="0 0 16 16" fill="none" xmlns="http://www.w3.org/2000/svg">
<path fill-rule="evenodd" clip-rule="evenodd" d="M1.17605 4.11113C1.38353 3.9421 1.69179 3.96961 1.86458 4.17257C3.0069 5.51439 5.07893 7.18877 8.33333 7.18877C11.5877 7.18877 13.6597 5.51441 14.802 4.17259C14.9748 3.96963 15.2831 3.94212 15.4905 4.11115C15.698 4.28018 15.7261 4.58174 15.5533 4.78471C15.2011 5.19852 14.7646 5.64481 14.2385 6.07275C14.2667 6.10372 14.2913 6.13883 14.3113 6.17777L15.6149 8.72843C15.7357 8.9647 15.6378 9.25197 15.3963 9.3701C15.1548 9.48823 14.8611 9.39243 14.7404 9.15623L13.4571 6.6453C12.6435 7.17963 11.6655 7.6397 10.5101 7.9047L11.0941 10.7616C11.1471 11.0206 10.9754 11.2725 10.7106 11.3243C10.4459 11.3761 10.1883 11.2082 10.1353 10.9492L9.54727 8.07277C9.16013 8.1199 8.7556 8.14523 8.33333 8.14523C7.911 8.14523 7.50647 8.1199 7.11927 8.07277L6.53123 10.9492C6.47827 11.2082 6.22071 11.3761 5.95595 11.3243C5.69119 11.2725 5.51949 11.0206 5.57244 10.7616L6.15652 7.90463C5.20323 7.68603 4.3708 7.33463 3.65179 6.9183L1.88002 9.2293C1.71802 9.44057 1.41159 9.48343 1.19558 9.32497C0.97958 9.16643 0.935803 8.8667 1.09781 8.65537L2.83667 6.3873C2.12387 5.86841 1.553 5.30125 1.11325 4.78469C0.940457 4.58173 0.968577 4.28017 1.17605 4.11113Z" fill="#8F9BB3"/>
</svg>
