<svg width="21" height="21" viewBox="0 0 21 21" fill="none" xmlns="http://www.w3.org/2000/svg">
<path d="M8.37659 13.5638C8.21825 13.5638 8.05992 13.5055 7.93492 13.3805C7.25159 12.6972 6.87659 11.7888 6.87659 10.8305C6.87659 8.83883 8.49325 7.22217 10.4849 7.22217C11.4433 7.22217 12.3516 7.59717 13.0349 8.2805C13.1516 8.39717 13.2183 8.5555 13.2183 8.72217C13.2183 8.88883 13.1516 9.04717 13.0349 9.16383L8.81825 13.3805C8.69325 13.5055 8.53492 13.5638 8.37659 13.5638ZM10.4849 8.47217C9.18492 8.47217 8.12659 9.5305 8.12659 10.8305C8.12659 11.2472 8.23492 11.6472 8.43492 11.9972L11.6516 8.7805C11.3016 8.5805 10.9016 8.47217 10.4849 8.47217Z" fill="white"/>
<path d="M5.15152 16.2556C5.00985 16.2556 4.85985 16.2056 4.74319 16.1056C3.85152 15.3473 3.05152 14.414 2.36819 13.3306C1.48486 11.9556 1.48486 9.71396 2.36819 8.33063C4.40152 5.1473 7.35985 3.31396 10.4849 3.31396C12.3182 3.31396 14.1265 3.9473 15.7099 5.13897C15.9849 5.3473 16.0432 5.73896 15.8349 6.01396C15.6265 6.28896 15.2349 6.3473 14.9599 6.13896C13.5932 5.10563 12.0432 4.56396 10.4849 4.56396C7.79319 4.56396 5.21819 6.18063 3.41819 9.00563C2.79319 9.98063 2.79319 11.6806 3.41819 12.6556C4.04319 13.6306 4.75985 14.4723 5.55152 15.1556C5.80985 15.3806 5.84319 15.7723 5.61819 16.039C5.50152 16.1806 5.32652 16.2556 5.15152 16.2556Z" fill="white"/>
<path d="M10.4849 18.3472C9.37654 18.3472 8.29321 18.1222 7.25154 17.6805C6.93487 17.5471 6.78487 17.1805 6.91821 16.8638C7.05154 16.5472 7.41821 16.3972 7.73487 16.5305C8.61821 16.9055 9.54321 17.0972 10.4765 17.0972C13.1682 17.0972 15.7432 15.4805 17.5432 12.6555C18.1682 11.6805 18.1682 9.98048 17.5432 9.00548C17.2849 8.59715 17.0015 8.20548 16.7015 7.83882C16.4849 7.57215 16.5265 7.18048 16.7932 6.95548C17.0599 6.73882 17.4515 6.77215 17.6765 7.04715C18.0015 7.44715 18.3182 7.88048 18.6015 8.33048C19.4849 9.70548 19.4849 11.9472 18.6015 13.3305C16.5682 16.5138 13.6099 18.3472 10.4849 18.3472Z" fill="white"/>
<path d="M11.0599 14.3887C10.7682 14.3887 10.5016 14.1804 10.4432 13.8804C10.3766 13.5387 10.6016 13.2137 10.9432 13.1554C11.8599 12.9887 12.6266 12.222 12.7932 11.3054C12.8599 10.9637 13.1849 10.747 13.5266 10.8054C13.8682 10.872 14.0932 11.197 14.0266 11.5387C13.7599 12.9804 12.6099 14.122 11.1766 14.3887C11.1349 14.3804 11.1016 14.3887 11.0599 14.3887Z" fill="white"/>
<path d="M2.15148 19.7888C1.99315 19.7888 1.83481 19.7305 1.70981 19.6055C1.46815 19.3638 1.46815 18.9638 1.70981 18.7222L7.93481 12.4972C8.17648 12.2555 8.57648 12.2555 8.81815 12.4972C9.05981 12.7388 9.05981 13.1388 8.81815 13.3805L2.59315 19.6055C2.46815 19.7305 2.30981 19.7888 2.15148 19.7888Z" fill="white"/>
<path d="M12.5933 9.34743C12.4349 9.34743 12.2766 9.2891 12.1516 9.1641C11.9099 8.92243 11.9099 8.52243 12.1516 8.28076L18.3766 2.05576C18.6183 1.8141 19.0183 1.8141 19.2599 2.05576C19.5016 2.29743 19.5016 2.69743 19.2599 2.93909L13.0349 9.1641C12.9099 9.2891 12.7516 9.34743 12.5933 9.34743Z" fill="white"/>
</svg>
