<svg width="344" height="251" viewBox="0 0 344 251" fill="none" xmlns="http://www.w3.org/2000/svg">
<path d="M307.224 0L313.039 5.81387L317.116 9.89197L306.626 44.5374C310.706 52.5229 314.103 60.7661 316.823 69.1808L348.753 86.2703V92.0374V150.216V155.982L316.828 173.067C314.107 181.487 310.708 189.732 306.628 197.722L317.116 232.361L313.038 236.437L271.9 277.576L267.823 281.653L233.175 271.164C225.19 275.243 216.947 278.64 208.532 281.36L191.443 313.29H185.676H127.498H121.731L104.647 281.364C96.2276 278.643 87.9807 275.244 79.9919 271.165L45.3541 281.651L41.2769 277.574L0.137878 236.436L0 236.299C31.5323 242.96 65.8 247.542 98.7017 248.579C153.614 250.31 205.917 242.095 238.87 217.41C271.673 192.838 286.919 163.659 287.797 138.668C288.255 125.576 284.922 113.447 278.172 103.17C271.483 92.9852 261.637 85.0388 249.017 80.2247C224.873 71.0177 189.698 73.7526 148.014 96.892L148.031 96.923C140.318 101.088 132.901 104.107 125.893 106.122L125.916 106.202C113.843 109.667 103.579 109.85 95.7282 107.645C90.3222 106.128 86.5541 103.552 84.8451 100.398C84.5804 99.9113 84.3404 99.2946 84.1272 98.5553L84.0486 98.5782C83.9661 98.2686 83.9146 97.8665 83.894 97.3766C83.5831 89.4136 90.6961 77.7067 106.397 64.2861C125.767 47.7322 156.32 31.3387 199.81 18.8315C229.621 10.2597 265.256 3.59305 307.224 0Z" fill="#007AFF" fill-opacity="0.1"/>
</svg>
