<svg width="225" height="283" viewBox="0 0 225 283" fill="none" xmlns="http://www.w3.org/2000/svg">
<path d="M41.5292 282.29L35.7139 276.476L31.6367 272.398L42.1268 237.752C38.0473 229.767 34.6498 221.524 31.9301 213.109L0 196.02V190.253V132.074V126.308L31.9253 109.223C34.646 100.803 38.0454 92.5577 42.1245 84.5679L31.6372 49.9291L35.7154 45.8529L76.8534 4.71392L80.9301 0.636734L115.577 11.1263C123.563 7.04727 131.806 3.65025 140.221 0.930067L157.31 -31H163.076H221.255H227.022L244.106 0.926254C252.525 3.64644 260.772 7.04584 268.761 11.1249L303.399 0.638655L307.476 4.71582L348.615 45.8539L348.753 45.9908C317.221 39.3303 282.953 34.748 250.051 33.7106C195.139 31.9797 142.836 40.1951 109.883 64.8799C77.08 89.4522 61.8335 118.631 60.9563 143.622C60.4975 156.714 63.8306 168.843 70.5812 179.12C77.2703 189.305 87.1155 197.251 99.7362 202.065C123.88 211.272 159.055 208.537 200.739 185.398L200.722 185.367C208.435 181.202 215.852 178.183 222.86 176.167L222.837 176.088C234.91 172.623 245.174 172.44 253.025 174.644C258.431 176.162 262.199 178.738 263.908 181.892C264.173 182.379 264.413 182.995 264.626 183.735L264.704 183.712C264.787 184.021 264.838 184.423 264.859 184.913C265.17 192.876 258.057 204.583 242.356 218.004C222.986 234.558 192.433 250.951 148.943 263.458C119.132 272.03 83.4972 278.697 41.5292 282.29Z" fill="#007AFF" fill-opacity="0.1"/>
</svg>
