<svg width="16" height="16" viewBox="0 0 16 16" fill="none" xmlns="http://www.w3.org/2000/svg">
<path fill-rule="evenodd" clip-rule="evenodd" d="M2.4012 5.56324C3.56562 4.45463 5.39407 3.33337 8.00022 3.33337C10.6064 3.33337 12.4348 4.45463 13.5992 5.56324C14.18 6.1161 14.5986 6.66811 14.8728 7.08271C15.0102 7.29037 15.112 7.46477 15.1804 7.58911C15.2147 7.65137 15.2406 7.70117 15.2585 7.73651C15.2674 7.75417 15.2743 7.76824 15.2793 7.77837L15.2852 7.79077L15.2871 7.79471L15.2878 7.79611C15.2878 7.79611 15.2882 7.79711 14.8075 8.00051C15.2882 8.20391 15.288 8.20437 15.288 8.20437L15.2871 8.20631L15.2852 8.21024L15.2792 8.22264C15.2743 8.23284 15.2674 8.24684 15.2584 8.26451C15.2406 8.29984 15.2146 8.34964 15.1804 8.41184C15.112 8.53617 15.0102 8.71051 14.8728 8.91817C14.5986 9.33271 14.1799 9.88457 13.5992 10.4373C12.4348 11.5457 10.6064 12.6667 8.00022 12.6667C5.39411 12.6667 3.56567 11.5457 2.40124 10.4373C1.82054 9.88457 1.40186 9.33271 1.12766 8.91817C0.990298 8.71051 0.888438 8.53617 0.820018 8.41184C0.785792 8.34964 0.759865 8.29984 0.741998 8.26451C0.733065 8.24684 0.726138 8.23284 0.721185 8.22264L0.715238 8.21024L0.713372 8.20631L0.712712 8.20491C0.712712 8.20491 0.712232 8.20391 1.19291 8.00051C0.712212 7.79711 0.712432 7.79664 0.712432 7.79664L0.713352 7.79471L0.715225 7.79077L0.721172 7.77837C0.726118 7.76824 0.733045 7.75417 0.741978 7.73651C0.759845 7.70117 0.785765 7.65137 0.819998 7.58911C0.888418 7.46477 0.990272 7.29037 1.12762 7.08271C1.40182 6.66811 1.82051 6.1161 2.4012 5.56324ZM1.19291 8.00051L0.712432 7.79664C0.651984 7.92617 0.651774 8.07444 0.712232 8.20391L1.19291 8.00051ZM1.78174 8.00044C1.83797 8.09984 1.91636 8.23097 2.01792 8.38451C2.26034 8.75097 2.63178 9.24051 3.14512 9.72911C4.16875 10.7034 5.74396 11.6652 8.00022 11.6652C10.2565 11.6652 11.8317 10.7034 12.8553 9.72911C13.3686 9.24051 13.7401 8.75097 13.9825 8.38451C14.0841 8.23097 14.1625 8.09984 14.2187 8.00044C14.1625 7.90111 14.0841 7.76991 13.9825 7.61631C13.7401 7.24971 13.3686 6.76011 12.8553 6.27139C11.8316 5.29681 10.2564 4.3349 8.00022 4.3349C5.744 4.3349 4.16881 5.29681 3.14516 6.27139C2.63183 6.76011 2.26037 7.24971 2.01795 7.61631C1.91637 7.76991 1.83797 7.90111 1.78174 8.00044ZM14.8075 8.00051L15.288 8.20437C15.3484 8.07491 15.3487 7.92664 15.2882 7.79711L14.8075 8.00051ZM8.00022 6.18708C6.94802 6.18708 6.09504 6.99904 6.09504 8.00071C6.09504 9.00237 6.94802 9.81431 8.00022 9.81431C9.05235 9.81431 9.90535 9.00237 9.90535 8.00071C9.90535 6.99904 9.05235 6.18708 8.00022 6.18708ZM5.04298 8.00071C5.04298 6.44595 6.36697 5.18555 8.00022 5.18555C9.63342 5.18555 10.9574 6.44595 10.9574 8.00071C10.9574 9.55551 9.63342 10.8158 8.00022 10.8158C6.36697 10.8158 5.04298 9.55551 5.04298 8.00071Z" fill="#8F9BB3"/>
</svg>
