<svg width="114" height="113" viewBox="0 0 114 113" fill="none" xmlns="http://www.w3.org/2000/svg">
<path d="M113.25 56.5C113.25 61.3 107.353 65.2562 106.172 69.6812C104.953 74.2562 108.037 80.6312 105.722 84.6344C103.369 88.7031 96.2906 89.1906 92.9906 92.4906C89.6906 95.7906 89.2031 102.869 85.1344 105.222C81.1312 107.537 74.7562 104.453 70.1812 105.672C65.7562 106.853 61.8 112.75 57 112.75C52.2 112.75 48.2437 106.853 43.8187 105.672C39.2437 104.453 32.8688 107.537 28.8656 105.222C24.7969 102.869 24.3094 95.7906 21.0094 92.4906C17.7094 89.1906 10.6312 88.7031 8.27812 84.6344C5.9625 80.6312 9.04687 74.2562 7.82812 69.6812C6.64688 65.2562 0.75 61.3 0.75 56.5C0.75 51.7 6.64688 47.7437 7.82812 43.3187C9.04687 38.7437 5.9625 32.3688 8.27812 28.3656C10.6312 24.2969 17.7094 23.8094 21.0094 20.5094C24.3094 17.2094 24.7969 10.1312 28.8656 7.77812C32.8688 5.4625 39.2437 8.54688 43.8187 7.32813C48.2437 6.14688 52.2 0.25 57 0.25C61.8 0.25 65.7562 6.14688 70.1812 7.32813C74.7562 8.54688 81.1312 5.4625 85.1344 7.77812C89.2031 10.1312 89.6906 17.2094 92.9906 20.5094C96.2906 23.8094 103.369 24.2969 105.722 28.3656C108.037 32.3688 104.953 38.7437 106.172 43.3187C107.353 47.7437 113.25 51.7 113.25 56.5Z" fill="#007AFF"/>
<path d="M73.243 39.7406L51.8305 61.1531L40.7305 50.0625C38.3211 47.6531 34.4117 47.6531 32.0023 50.0625C29.593 52.4719 29.593 56.3813 32.0023 58.7906L47.5742 74.3625C49.918 76.7063 53.7242 76.7063 56.068 74.3625L81.9617 48.4688C84.3711 46.0594 84.3711 42.15 81.9617 39.7406C79.5523 37.3313 75.6523 37.3313 73.243 39.7406Z" fill="#FFFCEE"/>
</svg>
