<svg width="18" height="18" viewBox="0 0 18 18" fill="none" xmlns="http://www.w3.org/2000/svg">
<path d="M2.16047 13.3193L6.48047 13.3193" stroke="white" stroke-width="1.5" stroke-miterlimit="10" stroke-linecap="round" stroke-linejoin="round"/>
<path d="M13.6825 13.3193L16.5625 13.3193" stroke="white" stroke-width="1.5" stroke-miterlimit="10" stroke-linecap="round" stroke-linejoin="round"/>
<path d="M10.8003 10.7998C9.40856 10.7998 8.28031 11.9281 8.28031 13.3198C8.28031 14.7116 9.40856 15.8398 10.8003 15.8398C12.1921 15.8398 13.3203 14.7116 13.3203 13.3198C13.3203 11.9281 12.1921 10.7998 10.8003 10.7998Z" stroke="white" stroke-width="1.5" stroke-miterlimit="10" stroke-linecap="round" stroke-linejoin="round"/>
<path d="M2.15906 5.39941L5.03906 5.39941" stroke="white" stroke-width="1.5" stroke-miterlimit="10" stroke-linecap="round" stroke-linejoin="round"/>
<path d="M12.2425 5.39941L16.5625 5.39941" stroke="white" stroke-width="1.5" stroke-miterlimit="10" stroke-linecap="round" stroke-linejoin="round"/>
<path d="M7.9175 2.87992C6.52574 2.87992 5.3975 4.00816 5.3975 5.39992C5.3975 6.79168 6.52574 7.91992 7.9175 7.91992C9.30926 7.91992 10.4375 6.79168 10.4375 5.39992C10.4375 4.00816 9.30926 2.87992 7.9175 2.87992Z" stroke="white" stroke-width="1.5" stroke-miterlimit="10" stroke-linecap="round" stroke-linejoin="round"/>
</svg>
