<svg width="23" height="23" viewBox="0 0 23 23" fill="none" xmlns="http://www.w3.org/2000/svg">
<g clip-path="url(#clip0_3948_18322)">
<path d="M6.66743 1.14453H1.14453V6.66743" stroke="#282F3A" stroke-width="1.37" stroke-miterlimit="10" stroke-linecap="round" stroke-linejoin="round"/>
<path d="M6.66743 21.8559H1.14453V16.333" stroke="#282F3A" stroke-width="1.37" stroke-miterlimit="10" stroke-linecap="round" stroke-linejoin="round"/>
<path d="M16.332 1.14453H21.8549V6.66743" stroke="#282F3A" stroke-width="1.37" stroke-miterlimit="10" stroke-linecap="round" stroke-linejoin="round"/>
<path d="M16.332 21.8559H21.8549V16.333" stroke="#282F3A" stroke-width="1.37" stroke-miterlimit="10" stroke-linecap="round" stroke-linejoin="round"/>
<path d="M7.35904 5.97754C5.63312 7.70342 2.52648 17.7137 4.59757 17.7137C5.97829 17.7137 9.43014 10.1197 10.1205 10.1197C10.1205 10.1197 8.04938 14.2619 10.1205 14.2619C11.5012 14.2619 12.8819 11.5004 13.5723 11.5004C13.5723 11.5004 12.8819 13.5715 14.2627 13.5715C15.6435 13.5715 17.7145 10.1197 21.8567 10.1197" stroke="#282F3A" stroke-width="1.37" stroke-miterlimit="10" stroke-linecap="round" stroke-linejoin="round"/>
</g>
<defs>
<clipPath id="clip0_3948_18322">
<rect width="22" height="22" fill="white" transform="translate(0.5 0.5)"/>
</clipPath>
</defs>
</svg>
