<svg width="40" height="40" viewBox="0 0 40 40" fill="none" xmlns="http://www.w3.org/2000/svg">
<circle cx="20" cy="20" r="20" fill="#3356FF"/>
<path d="M28.633 16.892L28.3914 14.5837C28.0414 12.067 26.8997 11.042 24.458 11.042H22.4914H21.258H18.7247H17.4914H15.4914C13.0414 11.042 11.908 12.067 11.5497 14.6087L11.3247 16.9003C11.2414 17.792 11.483 18.6587 12.008 19.3337C12.6414 20.1587 13.6164 20.6253 14.6997 20.6253C15.7497 20.6253 16.758 20.1003 17.3914 19.2587C17.958 20.1003 18.9247 20.6253 19.9997 20.6253C21.0747 20.6253 22.0164 20.1253 22.5914 19.292C23.233 20.117 24.2247 20.6253 25.258 20.6253C26.3664 20.6253 27.3664 20.1337 27.9914 19.267C28.4914 18.6003 28.7164 17.7587 28.633 16.892Z" fill="white"/>
<path d="M19.4579 23.8829C18.3996 23.9912 17.5996 24.8912 17.5996 25.9579V28.2412C17.5996 28.4662 17.7829 28.6496 18.0079 28.6496H21.9829C22.2079 28.6496 22.3913 28.4662 22.3913 28.2412V26.2496C22.3996 24.5079 21.3746 23.6829 19.4579 23.8829Z" fill="white"/>
<path d="M27.8081 22.0001V24.4834C27.8081 26.7834 25.9414 28.6501 23.6414 28.6501C23.4164 28.6501 23.2331 28.4667 23.2331 28.2417V26.2501C23.2331 25.1834 22.9081 24.3501 22.2747 23.7834C21.7164 23.2751 20.9581 23.0251 20.0164 23.0251C19.8081 23.0251 19.5997 23.0334 19.3747 23.0584C17.8914 23.2084 16.7664 24.4584 16.7664 25.9584V28.2417C16.7664 28.4667 16.5831 28.6501 16.3581 28.6501C14.0581 28.6501 12.1914 26.7834 12.1914 24.4834V22.0167C12.1914 21.4334 12.7664 21.0417 13.3081 21.2334C13.5331 21.3084 13.7581 21.3667 13.9914 21.4001C14.0914 21.4167 14.1997 21.4334 14.2997 21.4334C14.4331 21.4501 14.5664 21.4584 14.6997 21.4584C15.6664 21.4584 16.6164 21.1001 17.3664 20.4834C18.0831 21.1001 19.0164 21.4584 19.9997 21.4584C20.9914 21.4584 21.9081 21.1167 22.6247 20.5001C23.3747 21.1084 24.3081 21.4584 25.2581 21.4584C25.4081 21.4584 25.5581 21.4501 25.6997 21.4334C25.7997 21.4251 25.8914 21.4167 25.9831 21.4001C26.2414 21.3667 26.4747 21.2917 26.7081 21.2167C27.2497 21.0334 27.8081 21.4334 27.8081 22.0001Z" fill="white"/>
</svg>
