<svg width="26" height="26" viewBox="0 0 26 26" fill="none" xmlns="http://www.w3.org/2000/svg">
<path d="M20.5002 5.5C19.7377 5.5 19.0377 5.0625 18.6877 4.3875L17.7877 2.575C17.2127 1.4375 15.7127 0.5 14.4377 0.5H11.5752C10.2877 0.5 8.78771 1.4375 8.21271 2.575L7.31271 4.3875C6.96271 5.0625 6.26271 5.5 5.50021 5.5C2.78771 5.5 0.637709 7.7875 0.812709 10.4875L1.46271 20.8125C1.61271 23.3875 3.00021 25.5 6.45021 25.5H19.5502C23.0002 25.5 24.3752 23.3875 24.5377 20.8125L25.1877 10.4875C25.3627 7.7875 23.2127 5.5 20.5002 5.5ZM11.1252 7.0625H14.8752C15.3877 7.0625 15.8127 7.4875 15.8127 8C15.8127 8.5125 15.3877 8.9375 14.8752 8.9375H11.1252C10.6127 8.9375 10.1877 8.5125 10.1877 8C10.1877 7.4875 10.6127 7.0625 11.1252 7.0625ZM13.0002 20.65C10.6752 20.65 8.77521 18.7625 8.77521 16.425C8.77521 14.0875 10.6627 12.2 13.0002 12.2C15.3377 12.2 17.2252 14.0875 17.2252 16.425C17.2252 18.7625 15.3252 20.65 13.0002 20.65Z" fill="#798191"/>
</svg>
