<svg width="26" height="26" viewBox="0 0 26 26" fill="none" xmlns="http://www.w3.org/2000/svg">
<path d="M18.2375 0.5H7.7625C3.2125 0.5 0.5 3.2125 0.5 7.7625V18.2375C0.5 19.6 0.7375 20.7875 1.2 21.7875C2.275 24.1625 4.575 25.5 7.7625 25.5H18.2375C22.7875 25.5 25.5 22.7875 25.5 18.2375V15.375V7.7625C25.5 3.2125 22.7875 0.5 18.2375 0.5ZM23.4625 13.625C22.4875 12.7875 20.9125 12.7875 19.9375 13.625L14.7375 18.0875C13.7625 18.925 12.1875 18.925 11.2125 18.0875L10.7875 17.7375C9.9 16.9625 8.4875 16.8875 7.4875 17.5625L2.8125 20.7C2.5375 20 2.375 19.1875 2.375 18.2375V7.7625C2.375 4.2375 4.2375 2.375 7.7625 2.375H18.2375C21.7625 2.375 23.625 4.2375 23.625 7.7625V13.7625L23.4625 13.625Z" fill="#798191"/>
</svg>
