<svg width="22" height="23" viewBox="0 0 22 23" fill="none" xmlns="http://www.w3.org/2000/svg">
<path d="M8.24984 9.49674C9.26236 9.49674 10.0832 8.67593 10.0832 7.66341C10.0832 6.65089 9.26236 5.83008 8.24984 5.83008C7.23732 5.83008 6.4165 6.65089 6.4165 7.66341C6.4165 8.67593 7.23732 9.49674 8.24984 9.49674Z" stroke="#8A8D8E" stroke-width="1.5" stroke-linecap="round" stroke-linejoin="round"/>
<path d="M11.9168 2.16309H8.25016C3.66683 2.16309 1.8335 3.99642 1.8335 8.57975V14.0798C1.8335 18.6631 3.66683 20.4964 8.25016 20.4964H13.7502C18.3335 20.4964 20.1668 18.6631 20.1668 14.0798V9.49642" stroke="#8A8D8E" stroke-width="1.5" stroke-linecap="round" stroke-linejoin="round"/>
<path d="M14.4375 4.91309H19.4792" stroke="#8A8D8E" stroke-width="1.5" stroke-linecap="round"/>
<path d="M16.9585 7.43424V2.39258" stroke="#8A8D8E" stroke-width="1.5" stroke-linecap="round"/>
<path d="M2.44727 17.7013L6.96643 14.6671C7.6906 14.1813 8.7356 14.2362 9.38643 14.7954L9.68893 15.0612C10.4039 15.6754 11.5589 15.6754 12.2739 15.0612L16.0873 11.7887C16.8023 11.1746 17.9573 11.1746 18.6723 11.7887L20.1664 13.0721" stroke="#8A8D8E" stroke-width="1.5" stroke-linecap="round" stroke-linejoin="round"/>
</svg>
