<svg width="28" height="28" viewBox="0 0 28 28" fill="none" xmlns="http://www.w3.org/2000/svg">
<rect opacity="0.7" width="28" height="28" rx="6" fill="#FFEDD3"/>
<path d="M14 10.458C12.425 10.458 12.125 11.1163 12.125 12.333V12.8497H15.875V12.333C15.875 11.1163 15.575 10.458 14 10.458Z" fill="#FF9500"/>
<path d="M14.0002 16.5833C14.5064 16.5833 14.9168 16.1729 14.9168 15.6667C14.9168 15.1604 14.5064 14.75 14.0002 14.75C13.4939 14.75 13.0835 15.1604 13.0835 15.6667C13.0835 16.1729 13.4939 16.5833 14.0002 16.5833Z" fill="#FF9500"/>
<path d="M13.9998 5.66699C9.39984 5.66699 5.6665 9.40033 5.6665 14.0003C5.6665 18.6003 9.39984 22.3337 13.9998 22.3337C18.5998 22.3337 22.3332 18.6003 22.3332 14.0003C22.3332 9.40033 18.5998 5.66699 13.9998 5.66699ZM18.4832 16.0837C18.4832 17.917 17.9165 18.4837 16.0832 18.4837H11.9165C10.0832 18.4837 9.5165 17.917 9.5165 16.0837V15.2503C9.5165 13.8253 9.85817 13.167 10.8748 12.942V12.3337C10.8748 11.5587 10.8748 9.20866 13.9998 9.20866C17.1248 9.20866 17.1248 11.5587 17.1248 12.3337V12.942C18.1415 13.167 18.4832 13.8253 18.4832 15.2503V16.0837Z" fill="#FF9500"/>
</svg>
