<svg width="20" height="20" viewBox="0 0 20 20" fill="none" xmlns="http://www.w3.org/2000/svg">
<circle opacity="0.28" cx="10" cy="10" r="10" fill="#1D2736"/>
<path d="M15.25 15.833H4.75C4.51083 15.833 4.3125 15.6347 4.3125 15.3955C4.3125 15.1563 4.51083 14.958 4.75 14.958H15.25C15.4892 14.958 15.6875 15.1563 15.6875 15.3955C15.6875 15.6347 15.4892 15.833 15.25 15.833Z" fill="white"/>
<path d="M14.0948 5.02964C12.9632 3.89798 11.8548 3.86881 10.694 5.02964L9.98817 5.73548C9.92984 5.79381 9.90651 5.88714 9.92984 5.96881C10.3732 7.51464 11.6098 8.75131 13.1557 9.19464C13.179 9.20048 13.2023 9.20631 13.2257 9.20631C13.2898 9.20631 13.3482 9.18298 13.3948 9.13631L14.0948 8.43048C14.6723 7.85881 14.9523 7.30464 14.9523 6.74464C14.9582 6.16714 14.6782 5.60714 14.0948 5.02964Z" fill="white"/>
<path d="M12.1059 9.72596C11.9367 9.6443 11.7734 9.56263 11.6159 9.4693C11.4875 9.39346 11.365 9.3118 11.2425 9.2243C11.1434 9.16013 11.0267 9.0668 10.9159 8.97346C10.9042 8.96763 10.8634 8.93263 10.8167 8.88596C10.6242 8.72263 10.4084 8.51263 10.2159 8.2793C10.1984 8.26763 10.1692 8.2268 10.1284 8.1743C10.07 8.1043 9.97086 7.98763 9.88336 7.85346C9.81336 7.76596 9.73169 7.63763 9.65586 7.5093C9.56252 7.3518 9.48086 7.1943 9.39919 7.03096C9.29211 6.80152 8.99097 6.73335 8.81192 6.9124L5.53169 10.1926C5.45586 10.2685 5.38586 10.4143 5.36836 10.5135L5.05336 12.7476C4.99502 13.1443 5.10586 13.5176 5.35086 13.7685C5.56086 13.9726 5.85252 14.0835 6.16752 14.0835C6.23752 14.0835 6.30752 14.0776 6.37752 14.066L8.61752 13.751C8.72252 13.7335 8.86836 13.6635 8.93836 13.5876L12.224 10.302C12.3995 10.1265 12.3335 9.82463 12.1059 9.72596Z" fill="white"/>
</svg>
