<svg width="28" height="28" viewBox="0 0 28 28" fill="none" xmlns="http://www.w3.org/2000/svg">
<rect opacity="0.7" width="28" height="28" rx="6" fill="#DAECFF"/>
<path d="M21.1834 11.0413C20.3084 7.19134 16.9501 5.45801 14.0001 5.45801C14.0001 5.45801 14.0001 5.45801 13.9917 5.45801C11.0501 5.45801 7.68341 7.18301 6.80841 11.033C5.83341 15.333 8.46675 18.9747 10.8501 21.2663C11.7334 22.1163 12.8667 22.5413 14.0001 22.5413C15.1334 22.5413 16.2667 22.1163 17.1417 21.2663C19.5251 18.9747 22.1584 15.3413 21.1834 11.0413ZM14.0001 15.2163C12.5501 15.2163 11.3751 14.0413 11.3751 12.5913C11.3751 11.1413 12.5501 9.96634 14.0001 9.96634C15.4501 9.96634 16.6251 11.1413 16.6251 12.5913C16.6251 14.0413 15.4501 15.2163 14.0001 15.2163Z" fill="#007AFF"/>
</svg>
