<svg width="70" height="70" viewBox="0 0 70 70" fill="none" xmlns="http://www.w3.org/2000/svg">
<path opacity="0.4" d="M17.5 29.1663V23.333C17.5 13.6788 20.4167 5.83301 35 5.83301C49.5833 5.83301 52.5 13.6788 52.5 23.333V29.1663" stroke="#1D2736" stroke-width="1.5" stroke-linecap="round" stroke-linejoin="round"/>
<path d="M49.5 65H22.5C11.7 65 9 62.25 9 51.25V45.75C9 34.75 11.7 32 22.5 32H49.5C60.3 32 63 34.75 63 45.75V51.25C63 62.25 60.3 65 49.5 65Z" fill="#A0BBD5"/>
<path d="M35.0002 53.9583C39.0272 53.9583 42.2918 50.6937 42.2918 46.6667C42.2918 42.6396 39.0272 39.375 35.0002 39.375C30.9731 39.375 27.7085 42.6396 27.7085 46.6667C27.7085 50.6937 30.9731 53.9583 35.0002 53.9583Z" stroke="#1D2736" stroke-width="1.5" stroke-linecap="round" stroke-linejoin="round"/>
<path d="M49.5835 64.167H20.4168C8.75016 64.167 5.8335 61.2503 5.8335 49.5837V43.7503C5.8335 32.0837 8.75016 29.167 20.4168 29.167H49.5835C61.2502 29.167 64.1668 32.0837 64.1668 43.7503V49.5837C64.1668 61.2503 61.2502 64.167 49.5835 64.167Z" stroke="#1D2736" stroke-width="1.5" stroke-linecap="round" stroke-linejoin="round"/>
</svg>
