<svg width="100" height="100" viewBox="0 0 100 100" fill="none" xmlns="http://www.w3.org/2000/svg">
<path opacity="0.4" d="M25 41.6663V33.333C25 19.5413 29.1667 8.33301 50 8.33301C70.8333 8.33301 75 19.5413 75 33.333V41.6663" stroke="#1D2736" stroke-width="2.14286" stroke-linecap="round" stroke-linejoin="round"/>
<path d="M70.7141 92.8567H32.1426C16.7141 92.8567 12.8569 88.9282 12.8569 73.2139V65.3567C12.8569 49.6424 16.7141 45.7139 32.1426 45.7139H70.7141C86.1426 45.7139 89.9998 49.6424 89.9998 65.3567V73.2139C89.9998 88.9282 86.1426 92.8567 70.7141 92.8567Z" fill="#EBC351"/>
<path d="M50.0002 77.0833C55.7531 77.0833 60.4168 72.4196 60.4168 66.6667C60.4168 60.9137 55.7531 56.25 50.0002 56.25C44.2472 56.25 39.5835 60.9137 39.5835 66.6667C39.5835 72.4196 44.2472 77.0833 50.0002 77.0833Z" stroke="#1D2736" stroke-width="2.14286" stroke-linecap="round" stroke-linejoin="round"/>
<path d="M70.8335 91.667H29.1668C12.5002 91.667 8.3335 87.5003 8.3335 70.8337V62.5003C8.3335 45.8337 12.5002 41.667 29.1668 41.667H70.8335C87.5002 41.667 91.6668 45.8337 91.6668 62.5003V70.8337C91.6668 87.5003 87.5002 91.667 70.8335 91.667Z" stroke="#1D2736" stroke-width="2.14286" stroke-linecap="round" stroke-linejoin="round"/>
</svg>
