<svg width="28" height="28" viewBox="0 0 28 28" fill="none" xmlns="http://www.w3.org/2000/svg">
<rect opacity="0.7" width="28" height="28" rx="6" fill="#F3DBFF"/>
<path d="M19.4168 7.42493L15.2585 5.8666C14.5668 5.60827 13.4335 5.60827 12.7418 5.8666L8.58346 7.42493C7.62513 7.78327 6.8418 8.9166 6.8418 9.93327V16.1249C6.8418 17.1083 7.4918 18.3999 8.28346 18.9916L11.8668 21.6666C13.0418 22.5499 14.9751 22.5499 16.1501 21.6666L19.7335 18.9916C20.5251 18.3999 21.1751 17.1083 21.1751 16.1249V9.93327C21.1585 8.9166 20.3751 7.78327 19.4168 7.42493ZM13.9418 9.85827C14.9251 9.85827 15.7251 10.6583 15.7251 11.6416C15.7251 12.6083 14.9668 13.3833 14.0085 13.4166H13.9918H13.9751C13.9585 13.4166 13.9418 13.4166 13.9251 13.4166C12.9251 13.3833 12.1751 12.6083 12.1751 11.6416C12.1668 10.6583 12.9668 9.85827 13.9418 9.85827ZM15.8251 17.6333C15.3168 17.9666 14.6585 18.1416 14.0001 18.1416C13.3418 18.1416 12.6751 17.9749 12.1751 17.6333C11.7001 17.3166 11.4418 16.8833 11.4335 16.4083C11.4335 15.9416 11.7001 15.4916 12.1751 15.1749C13.1835 14.5083 14.8251 14.5083 15.8335 15.1749C16.3085 15.4916 16.5751 15.9249 16.5751 16.3999C16.5668 16.8666 16.3001 17.3166 15.8251 17.6333Z" fill="#AF52DE"/>
</svg>
