<svg width="28" height="28" viewBox="0 0 28 28" fill="none" xmlns="http://www.w3.org/2000/svg">
<rect opacity="0.7" width="28" height="28" rx="6" fill="#D1D1D6"/>
<path d="M22.3337 14.0003C22.3337 9.40866 18.592 5.66699 14.0003 5.66699C9.40866 5.66699 5.66699 9.40866 5.66699 14.0003C5.66699 16.417 6.70866 18.592 8.35866 20.117C8.35866 20.1253 8.35866 20.1253 8.35033 20.1337C8.43366 20.217 8.53366 20.2837 8.61699 20.3587C8.66699 20.4003 8.70866 20.442 8.75866 20.4753C8.90866 20.6003 9.07533 20.717 9.23366 20.8337C9.29199 20.8753 9.34199 20.9087 9.40033 20.9503C9.55866 21.0587 9.72533 21.1587 9.90033 21.2503C9.95866 21.2837 10.0253 21.3253 10.0837 21.3587C10.2503 21.4503 10.4253 21.5337 10.6087 21.6087C10.6753 21.642 10.742 21.6753 10.8087 21.7003C10.992 21.7753 11.1753 21.842 11.3587 21.9003C11.4253 21.9253 11.492 21.9503 11.5587 21.967C11.7587 22.0253 11.9587 22.0753 12.1587 22.1253C12.217 22.142 12.2753 22.1587 12.342 22.167C12.5753 22.217 12.8087 22.2503 13.0503 22.2753C13.0837 22.2753 13.117 22.2837 13.1503 22.292C13.4337 22.317 13.717 22.3337 14.0003 22.3337C14.2837 22.3337 14.567 22.317 14.842 22.292C14.8753 22.292 14.9087 22.2837 14.942 22.2753C15.1837 22.2503 15.417 22.217 15.6503 22.167C15.7087 22.1587 15.767 22.1337 15.8337 22.1253C16.0337 22.0753 16.242 22.0337 16.4337 21.967C16.5003 21.942 16.567 21.917 16.6337 21.9003C16.817 21.8337 17.0087 21.7753 17.1837 21.7003C17.2503 21.6753 17.317 21.642 17.3837 21.6087C17.5587 21.5337 17.7337 21.4503 17.9087 21.3587C17.9753 21.3253 18.0337 21.2837 18.092 21.2503C18.2587 21.1503 18.4253 21.0587 18.592 20.9503C18.6503 20.917 18.7003 20.8753 18.7587 20.8337C18.9253 20.717 19.0837 20.6003 19.2337 20.4753C19.2837 20.4337 19.3253 20.392 19.3753 20.3587C19.467 20.2837 19.5587 20.2087 19.642 20.1337C19.642 20.1253 19.642 20.1253 19.6337 20.117C21.292 18.592 22.3337 16.417 22.3337 14.0003ZM18.117 18.142C15.8587 16.6253 12.1587 16.6253 9.88366 18.142C9.51699 18.3837 9.21699 18.667 8.96699 18.9753C7.70033 17.692 6.91699 15.9337 6.91699 14.0003C6.91699 10.092 10.092 6.91699 14.0003 6.91699C17.9087 6.91699 21.0837 10.092 21.0837 14.0003C21.0837 15.9337 20.3003 17.692 19.0337 18.9753C18.792 18.667 18.4837 18.3837 18.117 18.142Z" fill="#1D2736"/>
<path d="M14 9.77539C12.275 9.77539 10.875 11.1754 10.875 12.9004C10.875 14.5921 12.2 15.9671 13.9583 16.0171C13.9833 16.0171 14.0167 16.0171 14.0333 16.0171C14.05 16.0171 14.075 16.0171 14.0917 16.0171C14.1 16.0171 14.1083 16.0171 14.1083 16.0171C15.7917 15.9587 17.1167 14.5921 17.125 12.9004C17.125 11.1754 15.725 9.77539 14 9.77539Z" fill="#1D2736"/>
</svg>
