<svg width="28" height="28" viewBox="0 0 28 28" fill="none" xmlns="http://www.w3.org/2000/svg">
<rect opacity="0.7" width="28" height="28" rx="6" fill="#CFFFDB"/>
<path d="M10.3582 6.97506C10.5077 6.89353 10.6665 7.01897 10.6665 7.18924V18.4667C10.6665 18.664 10.5314 18.8306 10.3582 18.9251L8.39987 20.0417C7.0332 20.8251 5.9082 20.1751 5.9082 18.5917V10.4834C5.9082 9.9584 6.2832 9.3084 6.74987 9.04173L10.3582 6.97506Z" fill="#34C759"/>
<path d="M16.2219 9.06214C16.3922 9.1465 16.5 9.32013 16.5 9.51021V20.2868C16.5 20.6553 16.115 20.8972 15.783 20.7372L12.408 19.1112C12.235 19.0279 12.125 18.8528 12.125 18.6608V7.83878C12.125 7.46792 12.5146 7.22613 12.8469 7.39071L16.2219 9.06214Z" fill="#34C759"/>
<path d="M22.333 9.40806V17.5164C22.333 18.0414 21.958 18.6914 21.4913 18.9581L18.7066 20.554C18.3733 20.7451 17.958 20.5044 17.958 20.1202V9.32338C17.958 9.14387 18.0542 8.97813 18.2101 8.88914L19.8413 7.95806C21.208 7.17473 22.333 7.82473 22.333 9.40806Z" fill="#34C759"/>
</svg>
