<svg width="28" height="28" viewBox="0 0 28 28" fill="none" xmlns="http://www.w3.org/2000/svg">
<rect opacity="0.7" width="28" height="28" rx="6" fill="#E0DFFF"/>
<path d="M22.3337 13.3753H20.6337C20.3337 10.2003 17.8003 7.65866 14.6253 7.36699V5.66699C14.6253 5.32533 14.342 5.04199 14.0003 5.04199C13.6587 5.04199 13.3753 5.32533 13.3753 5.66699V7.36699C10.2003 7.66699 7.65866 10.2003 7.36699 13.3753H5.66699C5.32533 13.3753 5.04199 13.6587 5.04199 14.0003C5.04199 14.342 5.32533 14.6253 5.66699 14.6253H7.36699C7.66699 17.8003 10.2003 20.342 13.3753 20.6337V22.3337C13.3753 22.6753 13.6587 22.9587 14.0003 22.9587C14.342 22.9587 14.6253 22.6753 14.6253 22.3337V20.6337C17.8003 20.3337 20.342 17.8003 20.6337 14.6253H22.3337C22.6753 14.6253 22.9587 14.342 22.9587 14.0003C22.9587 13.6587 22.6753 13.3753 22.3337 13.3753ZM14.0003 16.6003C12.567 16.6003 11.4003 15.4337 11.4003 14.0003C11.4003 12.567 12.567 11.4003 14.0003 11.4003C15.4337 11.4003 16.6003 12.567 16.6003 14.0003C16.6003 15.4337 15.4337 16.6003 14.0003 16.6003Z" fill="#5856D6"/>
</svg>
