<svg width="28" height="28" viewBox="0 0 28 28" fill="none" xmlns="http://www.w3.org/2000/svg">
<rect opacity="0.7" width="28" height="28" rx="6" fill="#FFE1E7"/>
<path d="M14.0003 5.66699C11.817 5.66699 10.042 7.44199 10.042 9.62533C10.042 11.767 11.717 13.5003 13.9003 13.5753C13.967 13.567 14.0337 13.567 14.0837 13.5753C14.1003 13.5753 14.1087 13.5753 14.1253 13.5753C14.1337 13.5753 14.1337 13.5753 14.142 13.5753C16.2753 13.5003 17.9503 11.767 17.9587 9.62533C17.9587 7.44199 16.1837 5.66699 14.0003 5.66699Z" fill="#FF2D55"/>
<path d="M18.2333 15.7914C15.9083 14.2414 12.1166 14.2414 9.77497 15.7914C8.71663 16.4997 8.1333 17.4581 8.1333 18.4831C8.1333 19.5081 8.71663 20.4581 9.76663 21.1581C10.9333 21.9414 12.4666 22.3331 14 22.3331C15.5333 22.3331 17.0666 21.9414 18.2333 21.1581C19.2833 20.4497 19.8666 19.4997 19.8666 18.4664C19.8583 17.4414 19.2833 16.4914 18.2333 15.7914Z" fill="#FF2D55"/>
</svg>
