<svg width="70" height="70" viewBox="0 0 70 70" fill="none" xmlns="http://www.w3.org/2000/svg">
<circle cx="35" cy="35" r="35" fill="#3356FF"/>
<g clip-path="url(#clip0_1439_19979)">
<path d="M42.4368 32.4167H28.5618C28.1363 32.4167 27.791 32.0713 27.791 31.6458V17.7708C27.791 17.3453 28.1363 17 28.5618 17H42.4368C42.8623 17 43.2077 17.3453 43.2077 17.7708V31.6458C43.2077 32.0713 42.8623 32.4167 42.4368 32.4167ZM29.3327 30.875H41.666V18.5417H29.3327V30.875Z" fill="white"/>
<path d="M37.8128 23.1667H33.1878C32.7623 23.1667 32.417 22.8213 32.417 22.3958V17.7708C32.417 17.3453 32.7623 17 33.1878 17H37.8128C38.2383 17 38.5837 17.3453 38.5837 17.7708V22.3958C38.5837 22.8213 38.2383 23.1667 37.8128 23.1667ZM33.9587 21.625H37.042V18.5417H33.9587V21.625Z" fill="white"/>
<path d="M35.4997 46.2917H20.8538C20.4283 46.2917 20.083 45.9463 20.083 45.5208V31.6458C20.083 31.2203 20.4283 30.875 20.8538 30.875H35.4997C35.9252 30.875 36.2705 31.2203 36.2705 31.6458V45.5208C36.2705 45.9463 35.9252 46.2917 35.4997 46.2917ZM21.6247 44.75H34.7288V32.4167H21.6247V44.75Z" fill="white"/>
<path d="M30.1038 37.0417H25.4788C25.0533 37.0417 24.708 36.6963 24.708 36.2708V31.6458C24.708 31.2203 25.0533 30.875 25.4788 30.875H30.1038C30.5293 30.875 30.8747 31.2203 30.8747 31.6458V36.2708C30.8747 36.6963 30.5293 37.0417 30.1038 37.0417ZM26.2497 35.5H29.333V32.4167H26.2497V35.5Z" fill="white"/>
<path d="M50.1452 46.2917H35.4993C35.0738 46.2917 34.7285 45.9463 34.7285 45.5208V31.6458C34.7285 31.2203 35.0738 30.875 35.4993 30.875H50.1452C50.5707 30.875 50.916 31.2203 50.916 31.6458V45.5208C50.916 45.9463 50.5707 46.2917 50.1452 46.2917ZM36.2702 44.75H49.3743V32.4167H36.2702V44.75Z" fill="white"/>
<path d="M45.5208 37.0417H40.8958C40.4703 37.0417 40.125 36.6963 40.125 36.2708V31.6458C40.125 31.2203 40.4703 30.875 40.8958 30.875H45.5208C45.9463 30.875 46.2917 31.2203 46.2917 31.6458V36.2708C46.2917 36.6963 45.9463 37.0417 45.5208 37.0417ZM41.6667 35.5H44.75V32.4167H41.6667V35.5Z" fill="white"/>
<path d="M53.2292 54H47.0625C46.637 54 46.2917 53.6547 46.2917 53.2292V50.9167H40.125V53.2292C40.125 53.6547 39.7797 54 39.3542 54H31.6458C31.2203 54 30.875 53.6547 30.875 53.2292V50.9167H24.7083V53.2292C24.7083 53.6547 24.363 54 23.9375 54H17.7708C17.3453 54 17 53.6547 17 53.2292V45.5208C17 45.0953 17.3453 44.75 17.7708 44.75H53.2292C53.6547 44.75 54 45.0953 54 45.5208V53.2292C54 53.6547 53.6547 54 53.2292 54ZM47.8333 52.4583H52.4583V46.2917H18.5417V52.4583H23.1667V50.1458C23.1667 49.7203 23.512 49.375 23.9375 49.375H31.6458C32.0713 49.375 32.4167 49.7203 32.4167 50.1458V52.4583H38.5833V50.1458C38.5833 49.7203 38.9287 49.375 39.3542 49.375H47.0625C47.488 49.375 47.8333 49.7203 47.8333 50.1458V52.4583Z" fill="white"/>
<path d="M47.8333 52.4583H52.4583V46.2917H18.5417V52.4583H23.1667V50.1458C23.1667 49.7203 23.512 49.375 23.9375 49.375H31.6458C32.0713 49.375 32.4167 49.7203 32.4167 50.1458V52.4583H38.5833V50.1458C38.5833 49.7203 38.9287 49.375 39.3542 49.375H47.0625C47.488 49.375 47.8333 49.7203 47.8333 50.1458V52.4583Z" fill="white" fill-opacity="0.37"/>
</g>
<defs>
<clipPath id="clip0_1439_19979">
<rect width="37" height="37" fill="white" transform="translate(17 17)"/>
</clipPath>
</defs>
</svg>
