<svg width="70" height="70" viewBox="0 0 70 70" fill="none" xmlns="http://www.w3.org/2000/svg">
<circle cx="35" cy="35" r="35" fill="#3356FF"/>
<g clip-path="url(#clip0_1825_25403)">
<path d="M51.6875 54H19.3125C18.0375 54 17 52.9625 17 51.6875V35.5C17 25.2988 25.2988 17 35.5 17C45.7012 17 54 25.2988 54 35.5V51.6875C54 52.9625 52.9625 54 51.6875 54ZM35.5 18.5417C26.1498 18.5417 18.5417 26.1498 18.5417 35.5V51.6875C18.5417 52.113 18.8885 52.4583 19.3125 52.4583H51.6875C52.1115 52.4583 52.4583 52.113 52.4583 51.6875V35.5C52.4583 26.1498 44.8502 18.5417 35.5 18.5417Z" fill="white"/>
<path d="M46.292 54.0007H35.5003C35.0748 54.0007 34.7295 53.6553 34.7295 53.2298V43.9798C34.7295 43.5543 35.0748 43.209 35.5003 43.209H46.292C46.7175 43.209 47.0628 43.5543 47.0628 43.9798V53.2298C47.0628 53.6553 46.7175 54.0007 46.292 54.0007ZM36.2712 52.459H45.5212V44.7507H36.2712V52.459Z" fill="white"/>
<path d="M36.2712 52.459H45.5212V44.7507H36.2712V52.459Z" fill="white" fill-opacity="0.2"/>
<path d="M40.8955 44.7507H30.1038C29.6783 44.7507 29.333 44.4053 29.333 43.9798V34.7298C29.333 34.3043 29.6783 33.959 30.1038 33.959H40.8955C41.321 33.959 41.6663 34.3043 41.6663 34.7298V43.9798C41.6663 44.4053 41.321 44.7507 40.8955 44.7507ZM30.8747 43.209H40.1247V35.5007H30.8747V43.209Z" fill="white"/>
<path d="M30.8747 43.209H40.1247V35.5007H30.8747V43.209Z" fill="white" fill-opacity="0.2"/>
<path d="M35.5 53.9997H24.7083C24.2828 53.9997 23.9375 53.6543 23.9375 53.2288V43.9788C23.9375 43.5533 24.2828 43.208 24.7083 43.208H35.5C35.9255 43.208 36.2708 43.5533 36.2708 43.9788V53.2288C36.2708 53.6543 35.9255 53.9997 35.5 53.9997ZM25.4792 52.458H34.7292V44.7497H25.4792V52.458Z" fill="white"/>
<path d="M25.4792 52.458H34.7292V44.7497H25.4792V52.458Z" fill="white" fill-opacity="0.2"/>
<path d="M35.5003 37.8132C35.0748 37.8132 34.7295 37.4678 34.7295 37.0423V34.7298C34.7295 34.3043 35.0748 33.959 35.5003 33.959C35.9258 33.959 36.2712 34.3043 36.2712 34.7298V37.0423C36.2712 37.4678 35.9258 37.8132 35.5003 37.8132Z" fill="white"/>
<path d="M30.1038 47.0632C29.6783 47.0632 29.333 46.7178 29.333 46.2923V43.9798C29.333 43.5543 29.6783 43.209 30.1038 43.209C30.5293 43.209 30.8747 43.5543 30.8747 43.9798V46.2923C30.8747 46.7178 30.5293 47.0632 30.1038 47.0632Z" fill="white"/>
<path d="M40.8958 47.0622C40.4703 47.0622 40.125 46.7168 40.125 46.2913V43.9788C40.125 43.5533 40.4703 43.208 40.8958 43.208C41.3213 43.208 41.6667 43.5533 41.6667 43.9788V46.2913C41.6667 46.7168 41.3213 47.0622 40.8958 47.0622Z" fill="white"/>
</g>
<defs>
<clipPath id="clip0_1825_25403">
<rect width="37" height="37" fill="white" transform="translate(17 17)"/>
</clipPath>
</defs>
</svg>
