<svg width="19" height="19" viewBox="0 0 19 19" fill="none" xmlns="http://www.w3.org/2000/svg">
<path d="M2.20002 13.3604L6.52002 13.3604" stroke="white" stroke-width="1.5" stroke-miterlimit="10" stroke-linecap="round" stroke-linejoin="round"/>
<path d="M13.7201 13.3604L16.6001 13.3604" stroke="white" stroke-width="1.5" stroke-miterlimit="10" stroke-linecap="round" stroke-linejoin="round"/>
<path d="M10.84 10.8399C9.44823 10.8399 8.31999 11.9681 8.31999 13.3599C8.31999 14.7516 9.44823 15.8799 10.84 15.8799C12.2317 15.8799 13.36 14.7516 13.36 13.3599C13.36 11.9681 12.2317 10.8399 10.84 10.8399Z" stroke="white" stroke-width="1.5" stroke-miterlimit="10" stroke-linecap="round" stroke-linejoin="round"/>
<path d="M2.20008 5.44043L5.08008 5.44043" stroke="white" stroke-width="1.5" stroke-miterlimit="10" stroke-linecap="round" stroke-linejoin="round"/>
<path d="M12.2801 5.44043L16.6001 5.44043" stroke="white" stroke-width="1.5" stroke-miterlimit="10" stroke-linecap="round" stroke-linejoin="round"/>
<path d="M7.9601 2.91996C6.56835 2.91996 5.4401 4.0482 5.4401 5.43996C5.4401 6.83172 6.56835 7.95996 7.9601 7.95996C9.35186 7.95996 10.4801 6.83172 10.4801 5.43996C10.4801 4.0482 9.35186 2.91996 7.9601 2.91996Z" stroke="white" stroke-width="1.5" stroke-miterlimit="10" stroke-linecap="round" stroke-linejoin="round"/>
</svg>
