<svg width="15" height="16" viewBox="0 0 15 16" fill="none" xmlns="http://www.w3.org/2000/svg">
<path d="M6.12797 12.2559C7.45875 12.2559 8.68594 11.8256 9.69 11.1084L13.4672 14.8856C13.6425 15.0609 13.8736 15.1486 14.1206 15.1486C14.6386 15.1486 15.0052 14.7502 15.0052 14.2402C15.0052 14.0011 14.9255 13.77 14.7502 13.6027L10.9969 9.84141C11.7858 8.80547 12.2559 7.5225 12.2559 6.12797C12.2559 2.75719 9.49875 0 6.12797 0C2.76516 0 0 2.74922 0 6.12797C0 9.49875 2.75719 12.2559 6.12797 12.2559ZM6.12797 10.9331C3.49828 10.9331 1.32281 8.75766 1.32281 6.12797C1.32281 3.49828 3.49828 1.32281 6.12797 1.32281C8.75766 1.32281 10.9331 3.49828 10.9331 6.12797C10.9331 8.75766 8.75766 10.9331 6.12797 10.9331Z" fill="#8F9BB3"/>
</svg>
