<svg width="30" height="31" viewBox="0 0 30 31" fill="none" xmlns="http://www.w3.org/2000/svg">
<g clip-path="url(#clip0_1395_34424)">
<path d="M21.875 30.5C17.395 30.5 13.75 26.855 13.75 22.375C13.75 17.895 17.395 14.25 21.875 14.25C26.355 14.25 30 17.895 30 22.375C30 26.855 26.355 30.5 21.875 30.5ZM21.875 15.5C18.0837 15.5 15 18.5837 15 22.375C15 26.1663 18.0837 29.25 21.875 29.25C25.6663 29.25 28.75 26.1663 28.75 22.375C28.75 18.5837 25.6663 15.5 21.875 15.5Z" fill="white"/>
<path d="M22 28.5C18.6917 28.5 16 25.8083 16 22.5C16 19.1917 18.6917 16.5 22 16.5C25.3083 16.5 28 19.1917 28 22.5C28 25.8083 25.3083 28.5 22 28.5ZM22 17.4231C19.2003 17.4231 16.9231 19.7003 16.9231 22.5C16.9231 25.2997 19.2003 27.5769 22 27.5769C24.7997 27.5769 27.0769 25.2997 27.0769 22.5C27.0769 19.7003 24.7997 17.4231 22 17.4231Z" fill="#FEE598"/>
<path d="M22 17.4231C19.2003 17.4231 16.9231 19.7003 16.9231 22.5C16.9231 25.2997 19.2003 27.5769 22 27.5769C24.7997 27.5769 27.0769 25.2997 27.0769 22.5C27.0769 19.7003 24.7997 17.4231 22 17.4231Z" fill="#FEE598"/>
<path d="M21.0772 25.654C20.9147 25.654 20.7572 25.5888 20.6415 25.4743L18.18 23.0128C17.94 22.7728 17.94 22.3827 18.18 22.1427C18.42 21.9027 18.8101 21.9027 19.0501 22.1427L21.0464 24.1389L24.9208 19.7107C25.1448 19.4535 25.5337 19.4289 25.7897 19.6529C26.0457 19.8769 26.0716 20.2658 25.8476 20.5218L21.5399 25.4448C21.4279 25.5728 21.2667 25.6491 21.0969 25.654C21.0907 25.654 21.0833 25.654 21.0772 25.654Z" fill="#1D2736"/>
<path d="M11.875 26.75H1.875C0.84125 26.75 0 25.9088 0 24.875V2.375C0 1.34125 0.84125 0.5 1.875 0.5H24.375C25.4088 0.5 26.25 1.34125 26.25 2.375V12.375C26.25 12.72 25.97 13 25.625 13C25.28 13 25 12.72 25 12.375V2.375C25 2.03 24.72 1.75 24.375 1.75H1.875C1.53 1.75 1.25 2.03 1.25 2.375V24.875C1.25 25.22 1.53 25.5 1.875 25.5H11.875C12.22 25.5 12.5 25.78 12.5 26.125C12.5 26.47 12.22 26.75 11.875 26.75Z" fill="white"/>
<path d="M18.125 11.75C17.9925 11.75 17.86 11.7075 17.75 11.625L13.125 8.15625L8.5 11.625C8.3125 11.7688 8.0575 11.79 7.84625 11.6838C7.63375 11.5775 7.5 11.3613 7.5 11.125V1.125C7.5 0.78 7.78 0.5 8.125 0.5H18.125C18.47 0.5 18.75 0.78 18.75 1.125V11.125C18.75 11.3613 18.6163 11.5775 18.405 11.6838C18.3162 11.7275 18.22 11.75 18.125 11.75ZM13.125 6.75C13.2562 6.75 13.3888 6.79125 13.5 6.875L17.5 9.875V1.75H8.75V9.875L12.75 6.875C12.8612 6.79125 12.9938 6.75 13.125 6.75Z" fill="white"/>
<path d="M13.125 6.75C13.2562 6.75 13.3888 6.79125 13.5 6.875L17.5 9.875V1.75H8.75V9.875L12.75 6.875C12.8612 6.79125 12.9938 6.75 13.125 6.75Z" fill="white" fill-opacity="0.2"/>
</g>
<defs>
<clipPath id="clip0_1395_34424">
<rect width="30" height="30" fill="white" transform="translate(0 0.5)"/>
</clipPath>
</defs>
</svg>
