<svg width="12" height="12" viewBox="0 0 12 12" fill="none" xmlns="http://www.w3.org/2000/svg">
<path d="M6 0C2.694 0 0 2.694 0 6C0 9.306 2.694 12 6 12C9.306 12 12 9.306 12 6C12 2.694 9.306 0 6 0ZM5.55 3.6C5.55 3.354 5.754 3.15 6 3.15C6.246 3.15 6.45 3.354 6.45 3.6V6.6C6.45 6.846 6.246 7.05 6 7.05C5.754 7.05 5.55 6.846 5.55 6.6V3.6ZM6.552 8.628C6.522 8.706 6.48 8.766 6.426 8.826C6.366 8.88 6.3 8.922 6.228 8.952C6.156 8.982 6.078 9 6 9C5.922 9 5.844 8.982 5.772 8.952C5.7 8.922 5.634 8.88 5.574 8.826C5.52 8.766 5.478 8.706 5.448 8.628C5.418 8.556 5.4 8.478 5.4 8.4C5.4 8.322 5.418 8.244 5.448 8.172C5.478 8.1 5.52 8.034 5.574 7.974C5.634 7.92 5.7 7.878 5.772 7.848C5.916 7.788 6.084 7.788 6.228 7.848C6.3 7.878 6.366 7.92 6.426 7.974C6.48 8.034 6.522 8.1 6.552 8.172C6.582 8.244 6.6 8.322 6.6 8.4C6.6 8.478 6.582 8.556 6.552 8.628Z" fill="#BBC8D0"/>
<path d="M5.55 3.6C5.55 3.354 5.754 3.15 6 3.15C6.246 3.15 6.45 3.354 6.45 3.6V6.6C6.45 6.846 6.246 7.05 6 7.05C5.754 7.05 5.55 6.846 5.55 6.6V3.6Z" fill="#282F3A"/>
<path d="M6.552 8.628C6.522 8.706 6.48 8.766 6.426 8.826C6.366 8.88 6.3 8.922 6.228 8.952C6.156 8.982 6.078 9 6 9C5.922 9 5.844 8.982 5.772 8.952C5.7 8.922 5.634 8.88 5.574 8.826C5.52 8.766 5.478 8.706 5.448 8.628C5.418 8.556 5.4 8.478 5.4 8.4C5.4 8.322 5.418 8.244 5.448 8.172C5.478 8.1 5.52 8.034 5.574 7.974C5.634 7.92 5.7 7.878 5.772 7.848C5.916 7.788 6.084 7.788 6.228 7.848C6.3 7.878 6.366 7.92 6.426 7.974C6.48 8.034 6.522 8.1 6.552 8.172C6.582 8.244 6.6 8.322 6.6 8.4C6.6 8.478 6.582 8.556 6.552 8.628Z" fill="#282F3A"/>
</svg>
