<svg width="31" height="31" viewBox="0 0 31 31" fill="none" xmlns="http://www.w3.org/2000/svg">
<g clip-path="url(#clip0_2660_13079)">
<path d="M22.1827 30.1994C17.7624 30.1994 14.166 26.603 14.166 22.1827C14.166 17.7624 17.7624 14.166 22.1827 14.166C26.603 14.166 30.1994 17.7624 30.1994 22.1827C30.1994 26.603 26.603 30.1994 22.1827 30.1994ZM22.1827 15.3993C18.442 15.3993 15.3993 18.442 15.3993 22.1827C15.3993 25.9234 18.442 28.966 22.1827 28.966C25.9234 28.966 28.966 25.9234 28.966 22.1827C28.966 18.442 25.9234 15.3993 22.1827 15.3993Z" fill="white"/>
<path d="M20.9489 25.267C20.7861 25.267 20.6282 25.2017 20.5123 25.087L18.0456 22.6203C17.8051 22.3798 17.8051 21.9888 18.0456 21.7483C18.2861 21.5078 18.6771 21.5078 18.9176 21.7483L20.918 23.7488L24.8006 19.3113C25.025 19.0535 25.4148 19.0276 25.6713 19.2533C25.9278 19.4778 25.9537 19.8675 25.7293 20.124L21.4126 25.0574C21.3004 25.1856 21.1388 25.2621 20.9686 25.267C20.9624 25.267 20.955 25.267 20.9489 25.267Z" fill="white"/>
<path d="M12.9397 13.55C12.7127 13.55 12.4957 13.4254 12.3871 13.2096C12.2354 12.9049 12.3588 12.5337 12.6634 12.382L24.3727 6.52368C24.5626 6.42748 24.7895 6.43734 24.9721 6.55081C25.1534 6.66304 25.2644 6.86161 25.2644 7.07498V12.3166C25.2644 12.657 24.9881 12.9333 24.6477 12.9333C24.3073 12.9333 24.031 12.657 24.031 12.3166V8.07274L13.2147 13.4846C13.1259 13.529 13.0322 13.55 12.9397 13.55Z" fill="white"/>
<path d="M12.3076 25.2666C12.2065 25.2666 12.1029 25.242 12.0079 25.1889L0.915343 19.0223C0.721709 18.9137 0.599609 18.7078 0.599609 18.4833V7.07498C0.599609 6.86161 0.710609 6.66304 0.891909 6.55081C1.07321 6.43734 1.30261 6.42748 1.49131 6.52368L13.2006 12.382C13.5052 12.5349 13.6285 12.9049 13.4768 13.2096C13.3251 13.5142 12.9539 13.6375 12.6493 13.4858L1.83294 8.07274V18.1207L12.6086 24.111C12.9058 24.2763 13.0131 24.6512 12.8478 24.9497C12.7344 25.1519 12.5247 25.2666 12.3076 25.2666Z" fill="white"/>
<path d="M24.6494 7.69164C24.5569 7.69164 24.4631 7.67067 24.3743 7.62627L12.9253 1.90607L1.4923 7.62627C1.18767 7.77674 0.816436 7.65587 0.664736 7.35124C0.513036 7.0466 0.635136 6.67537 0.939769 6.52367L12.649 0.665336C12.8229 0.579003 13.0277 0.579003 13.2003 0.665336L24.9244 6.52367C25.229 6.6766 25.3524 7.0466 25.2007 7.35124C25.0934 7.56707 24.8751 7.69164 24.6494 7.69164Z" fill="white"/>
<path d="M6.81784 15.0781C6.47744 15.0781 6.20117 14.8018 6.20117 14.4614V9.87587C6.20117 9.64278 6.33314 9.42941 6.54157 9.32457L18.2508 3.46624C18.5555 3.31454 18.9255 3.43787 19.0784 3.74251C19.2313 4.04714 19.1068 4.41714 18.8021 4.57007L7.43451 10.2582V14.4626C7.43451 14.803 7.15947 15.0781 6.81784 15.0781Z" fill="white"/>
</g>
<defs>
<clipPath id="clip0_2660_13079">
<rect width="29.6" height="29.6" fill="white" transform="translate(0.599609 0.599609)"/>
</clipPath>
</defs>
</svg>
