<svg width="20" height="20" viewBox="0 0 20 20" fill="none" xmlns="http://www.w3.org/2000/svg">
<path d="M12.709 19.3753V7.84449C12.709 7.34783 12.8698 6.86949 13.1682 6.47199L15.209 4.16699L17.3082 6.61699C17.5673 6.91866 17.709 7.30366 17.709 7.70116V17.7087C17.709 18.6295 16.9632 19.3753 16.0423 19.3753H12.709Z" fill="#FFA726"/>
<path d="M11.041 19.3747H3.95768C3.03685 19.3747 2.29102 18.6288 2.29102 17.708V8.05717C2.29102 7.56051 2.45185 7.07801 2.75018 6.68051L4.79102 3.95801H15.2077L12.9877 7.28801C12.8052 7.56217 12.7077 7.88384 12.7077 8.21217V17.708C12.7077 18.6288 11.9619 19.3747 11.041 19.3747Z" fill="#FFB74D"/>
<path d="M15.2077 3.75H4.79102V1.45833C4.79102 0.998333 5.16435 0.625 5.62435 0.625H14.3744C14.8344 0.625 15.2077 0.998333 15.2077 1.45833V3.75Z" fill="#FFB74D"/>
<path d="M6.45833 11.0419H8.385C8.845 11.0419 9.21833 10.6686 9.21833 10.2086V6.9794L11.75 4.11523H8L5.625 6.9794V10.2086C5.625 10.6686 5.99833 11.0419 6.45833 11.0419Z" fill="#FFA726"/>
<path d="M16.041 19.9997H3.95768C2.69352 19.9997 1.66602 18.9722 1.66602 17.708V7.84717C1.66602 7.35467 1.82852 6.86634 2.12518 6.47217L4.29102 3.58301C4.40935 3.42551 4.59435 3.33301 4.79102 3.33301H15.201C15.3385 3.33301 15.4602 3.36967 15.5718 3.45051C15.5802 3.45551 15.5877 3.46217 15.5943 3.46801H15.596C15.6427 3.50467 15.6827 3.54801 15.716 3.59384L17.8735 6.47134C18.1702 6.86634 18.3327 7.35467 18.3327 7.84717V17.708C18.3327 18.9722 17.3052 19.9997 16.041 19.9997ZM13.0819 18.7497H16.041C16.6152 18.7497 17.0827 18.2822 17.0827 17.708V7.84717C17.0827 7.62384 17.0085 7.40134 16.8743 7.22217L15.2077 4.99967L13.541 7.22217C13.4068 7.40134 13.3327 7.62301 13.3327 7.84717V17.708C13.3327 18.083 13.2427 18.4372 13.0819 18.7497ZM5.10352 4.58301L3.12435 7.22217C2.99018 7.40134 2.91602 7.62301 2.91602 7.84717V17.708C2.91602 18.2822 3.38352 18.7497 3.95768 18.7497H11.041C11.6152 18.7497 12.0827 18.2822 12.0827 17.708V7.84717C12.0827 7.35467 12.2452 6.86634 12.5418 6.47217L13.9577 4.58301H5.10352Z" fill="black"/>
<path d="M15.2077 4.375C14.8627 4.375 14.5827 4.095 14.5827 3.75V1.45833C14.5827 1.34333 14.4894 1.25 14.3744 1.25H5.62435C5.50935 1.25 5.41602 1.34333 5.41602 1.45833V3.75C5.41602 4.095 5.13602 4.375 4.79102 4.375C4.44602 4.375 4.16602 4.095 4.16602 3.75V1.45833C4.16602 0.654167 4.82018 0 5.62435 0H14.3744C15.1785 0 15.8327 0.654167 15.8327 1.45833V3.75C15.8327 4.095 15.5527 4.375 15.2077 4.375Z" fill="black"/>
<path d="M8.54167 11.667H6.45833C5.65417 11.667 5 11.0128 5 10.2086V7.66865C5 7.14948 5.17833 6.64115 5.50333 6.23615L7.6375 3.56865C7.855 3.29782 8.2475 3.25615 8.51667 3.47115C8.78583 3.68615 8.83 4.07948 8.61417 4.34948L6.47833 7.01698C6.33167 7.20198 6.25 7.43198 6.25 7.66865V10.2086C6.25 10.3236 6.34333 10.417 6.45833 10.417H8.54167C8.65667 10.417 8.75 10.3236 8.75 10.2086V7.66865C8.75 7.14948 8.92833 6.64115 9.25333 6.23615L11.3875 3.56865C11.605 3.29782 11.9975 3.25615 12.2667 3.47115C12.5358 3.68615 12.58 4.07948 12.3642 4.34948L10.2283 7.01698C10.0817 7.20198 10 7.43198 10 7.66865V10.2086C10 11.0128 9.34583 11.667 8.54167 11.667Z" fill="black"/>
<path d="M15.416 9.16667C15.071 9.16667 14.791 8.88667 14.791 8.54167V4.375C14.791 4.03 15.071 3.75 15.416 3.75C15.761 3.75 16.041 4.03 16.041 4.375V8.54167C16.041 8.88667 15.761 9.16667 15.416 9.16667Z" fill="black"/>
</svg>
