<svg width="37" height="36" viewBox="0 0 37 36" fill="none" xmlns="http://www.w3.org/2000/svg">
<circle cx="18.72" cy="17.72" r="17.72" fill="#E0E6EE"/>
<path d="M17.128 22.2559C18.4588 22.2559 19.6859 21.8256 20.69 21.1084L24.4672 24.8856C24.6425 25.0609 24.8736 25.1486 25.1206 25.1486C25.6386 25.1486 26.0052 24.7502 26.0052 24.2402C26.0052 24.0011 25.9255 23.77 25.7502 23.6027L21.9969 19.8414C22.7858 18.8055 23.2559 17.5225 23.2559 16.128C23.2559 12.7572 20.4988 10 17.128 10C13.7652 10 11 12.7492 11 16.128C11 19.4988 13.7572 22.2559 17.128 22.2559ZM17.128 20.9331C14.4983 20.9331 12.3228 18.7577 12.3228 16.128C12.3228 13.4983 14.4983 11.3228 17.128 11.3228C19.7577 11.3228 21.9331 13.4983 21.9331 16.128C21.9331 18.7577 19.7577 20.9331 17.128 20.9331Z" fill="#1A202C"/>
</svg>
