<svg width="48" height="47" viewBox="0 0 48 47" fill="none" xmlns="http://www.w3.org/2000/svg">
<g clip-path="url(#clip0_2279_30122)">
<path d="M7.35422 46.9998C7.18972 46.9998 7.02326 46.9587 6.86855 46.8706C6.39855 46.6023 6.23601 46.005 6.5043 45.535L10.421 38.6808C10.6873 38.2108 11.2846 38.0444 11.7566 38.3166C12.2266 38.5849 12.3891 39.1822 12.1208 39.6522L8.20414 46.5063C8.02397 46.8236 7.69301 46.9998 7.35422 46.9998Z" fill="#282F3A"/>
<path d="M40.6459 46.9998C40.3051 46.9998 39.9761 46.8236 39.794 46.5063L35.8773 39.6522C35.6091 39.1822 35.7716 38.5849 36.2416 38.3166C36.7096 38.0444 37.3069 38.2108 37.5772 38.6808L41.4938 45.535C41.7621 46.005 41.5996 46.6023 41.1296 46.8706C40.9788 46.9587 40.8104 46.9998 40.6459 46.9998Z" fill="#282F3A"/>
<circle cx="24" cy="25.5" r="19.5" fill="#FF8744"/>
<path d="M24.0002 11.75C23.4597 11.75 23.021 11.3113 23.021 10.7708V6.85417C23.021 6.31367 23.4597 5.875 24.0002 5.875C24.5407 5.875 24.9793 6.31367 24.9793 6.85417V10.7708C24.9793 11.3113 24.5407 11.75 24.0002 11.75Z" fill="white"/>
<path d="M24.0002 45.042C23.4597 45.042 23.021 44.6033 23.021 44.0628V40.1462C23.021 39.6057 23.4597 39.167 24.0002 39.167C24.5407 39.167 24.9793 39.6057 24.9793 40.1462V44.0628C24.9793 44.6033 24.5407 45.042 24.0002 45.042Z" fill="white"/>
<path d="M42.6043 26.4378H38.6877C38.1472 26.4378 37.7085 25.9992 37.7085 25.4587C37.7085 24.9182 38.1472 24.4795 38.6877 24.4795H42.6043C43.1448 24.4795 43.5835 24.9182 43.5835 25.4587C43.5835 25.9992 43.1448 26.4378 42.6043 26.4378Z" fill="white"/>
<path d="M9.31234 26.4378H5.39567C4.85517 26.4378 4.4165 25.9992 4.4165 25.4587C4.4165 24.9182 4.85517 24.4795 5.39567 24.4795H9.31234C9.85284 24.4795 10.2915 24.9182 10.2915 25.4587C10.2915 25.9992 9.85284 26.4378 9.31234 26.4378Z" fill="white"/>
<path d="M34.3849 16.0521C34.1343 16.0521 33.8836 15.9562 33.6917 15.7662C33.3098 15.3843 33.3098 14.7635 33.6917 14.3817L36.4608 11.6126C36.8426 11.2307 37.4634 11.2307 37.8453 11.6126C38.2272 11.9945 38.2272 12.6152 37.8453 12.9971L35.0782 15.7642C34.8863 15.9562 34.6356 16.0521 34.3849 16.0521Z" fill="white"/>
<path d="M10.8459 39.5912C10.5952 39.5912 10.3445 39.4952 10.1526 39.3053C9.77074 38.9234 9.77074 38.3026 10.1526 37.9207L12.9217 35.1516C13.3036 34.7698 13.9244 34.7698 14.3062 35.1516C14.6881 35.5335 14.6881 36.1543 14.3062 36.5362L11.5372 39.3053C11.3472 39.4952 11.0965 39.5912 10.8459 39.5912Z" fill="white"/>
<path d="M37.154 39.5912C36.9033 39.5912 36.6527 39.4952 36.4608 39.3053L33.6917 36.5362C33.3098 36.1543 33.3098 35.5335 33.6917 35.1516C34.0736 34.7698 34.6943 34.7698 35.0762 35.1516L37.8453 37.9207C38.2272 38.3026 38.2272 38.9234 37.8453 39.3053C37.6553 39.4952 37.4047 39.5912 37.154 39.5912Z" fill="white"/>
<path d="M13.615 16.0521C13.3643 16.0521 13.1136 15.9562 12.9217 15.7662L10.1526 12.9952C9.77074 12.6133 9.77074 11.9925 10.1526 11.6106C10.5345 11.2287 11.1553 11.2287 11.5372 11.6106L14.3062 14.3797C14.6881 14.7616 14.6881 15.3824 14.3062 15.7643C14.1163 15.9562 13.8656 16.0521 13.615 16.0521Z" fill="white"/>
<path d="M23.9998 45.0417C13.2016 45.0417 4.4165 36.2566 4.4165 25.4583C4.4165 14.6601 13.2016 5.875 23.9998 5.875C34.7981 5.875 43.5832 14.6601 43.5832 25.4583C43.5832 36.2566 34.7981 45.0417 23.9998 45.0417ZM23.9998 7.83333C14.2826 7.83333 6.37484 15.7411 6.37484 25.4583C6.37484 35.1756 14.2826 43.0833 23.9998 43.0833C33.7171 43.0833 41.6248 35.1756 41.6248 25.4583C41.6248 15.7411 33.7171 7.83333 23.9998 7.83333Z" fill="#282F3A"/>
<path d="M3.01269 13.2638C2.65432 13.2638 2.30965 13.066 2.13732 12.7253L0.813482 10.0913C0.243607 8.9555 0.464898 7.5925 1.36182 6.69558L7.19569 0.861706C8.09065 -0.0352106 9.45365 -0.258461 10.5856 0.309456L13.2391 1.63721C13.7248 1.87808 13.9206 2.46754 13.6778 2.95125C13.4349 3.433 12.8494 3.63079 12.3657 3.38796L9.71019 2.06216C9.33419 1.87612 8.87986 1.94662 8.58023 2.24429L2.7444 8.08012C2.44477 8.37975 2.37232 8.83408 2.56227 9.214L3.88611 11.846C4.12894 12.3277 3.93311 12.9172 3.45136 13.16C3.31036 13.2305 3.15957 13.2638 3.01269 13.2638Z" fill="#282F3A"/>
<path d="M44.9857 13.2812C44.8388 13.2812 44.6899 13.2479 44.5489 13.1774C44.0652 12.9346 43.8694 12.3471 44.1103 11.8634L45.438 9.20983C45.626 8.83187 45.5536 8.37754 45.254 8.07987L39.4201 2.246C39.1204 1.94637 38.6642 1.87391 38.2862 2.06387L35.6542 3.38771C35.1685 3.63054 34.583 3.43666 34.3402 2.95296C34.0973 2.46925 34.2932 1.88175 34.7749 1.63891L37.4069 0.31508C38.5408 -0.252837 39.9038 -0.0354619 40.8027 0.863413L46.6365 6.69729C47.5334 7.59421 47.7528 8.95525 47.1868 10.0872L45.8591 12.7407C45.6907 13.0834 45.346 13.2812 44.9857 13.2812Z" fill="#282F3A"/>
<path d="M28.896 31.3337C28.6453 31.3337 28.3947 31.2377 28.2027 31.0477L23.3069 26.1519C23.1248 25.9678 23.021 25.7191 23.021 25.4587V16.6462C23.021 16.1057 23.4597 15.667 24.0002 15.667C24.5407 15.667 24.9793 16.1057 24.9793 16.6462V25.0533L29.5892 29.6632C29.9711 30.0451 29.9711 30.6659 29.5892 31.0477C29.3973 31.2377 29.1467 31.3337 28.896 31.3337Z" fill="white"/>
</g>
<defs>
<clipPath id="clip0_2279_30122">
<rect width="47" height="47" fill="white" transform="translate(0.5)"/>
</clipPath>
</defs>
</svg>
