<svg width="37" height="36" viewBox="0 0 37 36" fill="none" xmlns="http://www.w3.org/2000/svg">
<circle cx="18.72" cy="17.72" r="17.72" fill="#E0E6EE"/>
<path d="M11.2 21.3604L15.52 21.3604" stroke="#1A202C" stroke-width="1.5" stroke-miterlimit="10" stroke-linecap="round" stroke-linejoin="round"/>
<path d="M22.72 21.3604L25.6 21.3604" stroke="#1A202C" stroke-width="1.5" stroke-miterlimit="10" stroke-linecap="round" stroke-linejoin="round"/>
<path d="M19.84 18.8399C18.4483 18.8399 17.32 19.9681 17.32 21.3599C17.32 22.7516 18.4483 23.8799 19.84 23.8799C21.2318 23.8799 22.36 22.7516 22.36 21.3599C22.36 19.9681 21.2318 18.8399 19.84 18.8399Z" stroke="#1A202C" stroke-width="1.5" stroke-miterlimit="10" stroke-linecap="round" stroke-linejoin="round"/>
<path d="M11.2 13.4404L14.08 13.4404" stroke="#1A202C" stroke-width="1.5" stroke-miterlimit="10" stroke-linecap="round" stroke-linejoin="round"/>
<path d="M21.28 13.4404L25.6 13.4404" stroke="#1A202C" stroke-width="1.5" stroke-miterlimit="10" stroke-linecap="round" stroke-linejoin="round"/>
<path d="M16.96 10.92C15.5683 10.92 14.44 12.0482 14.44 13.44C14.44 14.8317 15.5683 15.96 16.96 15.96C18.3518 15.96 19.48 14.8317 19.48 13.44C19.48 12.0482 18.3518 10.92 16.96 10.92Z" stroke="#1A202C" stroke-width="1.5" stroke-miterlimit="10" stroke-linecap="round" stroke-linejoin="round"/>
</svg>
