<svg width="20" height="20" viewBox="0 0 20 20" fill="none" xmlns="http://www.w3.org/2000/svg">
<g clip-path="url(#clip0_1431_19877)">
<path d="M7.91667 7.50033C7.68667 7.50033 7.5 7.31366 7.5 7.08366V4.58366C7.5 4.35366 7.68667 4.16699 7.91667 4.16699C8.14667 4.16699 8.33333 4.35366 8.33333 4.58366V7.08366C8.33333 7.31366 8.14667 7.50033 7.91667 7.50033Z" fill="black"/>
<path d="M12.0833 7.50033C11.8533 7.50033 11.6666 7.31366 11.6666 7.08366V4.58366C11.6666 4.35366 11.8533 4.16699 12.0833 4.16699C12.3133 4.16699 12.5 4.35366 12.5 4.58366V7.08366C12.5 7.31366 12.3133 7.50033 12.0833 7.50033Z" fill="black"/>
<path d="M17.4308 5.00033H2.45078C1.55328 5.00033 0.759112 4.42783 0.474945 3.57616L0.0207782 2.21533C-0.0208885 2.08866 -5.51492e-05 1.94866 0.0782782 1.84033C0.156612 1.73116 0.282445 1.66699 0.416612 1.66699H19.5833C19.7224 1.66699 19.8524 1.73699 19.9299 1.85283C20.0074 1.96866 20.0216 2.11533 19.9674 2.24449L19.3533 3.71949C19.0291 4.49699 18.2741 5.00033 17.4308 5.00033ZM0.994111 2.50033L1.26494 3.31283C1.43578 3.82366 1.91244 4.16699 2.45078 4.16699H17.4299C17.9358 4.16699 18.3891 3.86533 18.5841 3.39783L18.9583 2.50033H0.994111Z" fill="black"/>
<path d="M0.994111 2.50033L1.26494 3.31283C1.43578 3.82366 1.91244 4.16699 2.45078 4.16699H17.4299C17.9358 4.16699 18.3891 3.86533 18.5841 3.39783L18.9583 2.50033H0.994111Z" fill="#FFA726"/>
<path d="M16.25 18.3337H3.75C3.06083 18.3337 2.5 17.7728 2.5 17.0837C2.5 17.0295 2.50333 16.9762 2.51 16.9253L3.56917 8.49116C3.70083 7.45033 4.58917 6.66699 5.63667 6.66699H14.3633C15.4108 6.66699 16.2992 7.45033 16.43 8.49033L17.49 16.9262C17.4967 16.9762 17.5 17.0295 17.5 17.0837C17.5 17.7728 16.9392 18.3337 16.25 18.3337ZM5.63667 7.50033C5.00833 7.50033 4.475 7.97033 4.39667 8.59449L3.33667 17.0312C3.33333 17.3128 3.52 17.5003 3.75 17.5003H16.25C16.48 17.5003 16.6667 17.3128 16.6667 17.0837L15.6033 8.59449C15.525 7.97033 14.9917 7.50033 14.3633 7.50033H5.63667Z" fill="black"/>
<path d="M5.63667 7.50033C5.00833 7.50033 4.475 7.97033 4.39667 8.59449L3.33667 17.0312C3.33333 17.3128 3.52 17.5003 3.75 17.5003H16.25C16.48 17.5003 16.6667 17.3128 16.6667 17.0837L15.6033 8.59449C15.525 7.97033 14.9917 7.50033 14.3633 7.50033H5.63667Z" fill="#FFB74D"/>
<path d="M13.3333 14.1667C13.1033 14.1667 12.9167 13.98 12.9167 13.75C12.9167 12.1417 11.6083 10.8333 10 10.8333C8.39167 10.8333 7.08333 12.1417 7.08333 13.75C7.08333 13.98 6.89667 14.1667 6.66667 14.1667C6.43667 14.1667 6.25 13.98 6.25 13.75C6.25 11.6825 7.9325 10 10 10C12.0675 10 13.75 11.6825 13.75 13.75C13.75 13.98 13.5633 14.1667 13.3333 14.1667Z" fill="black"/>
<path d="M9.99995 14.9997C9.93745 14.9997 9.87412 14.9856 9.81412 14.9556C9.60829 14.8522 9.52495 14.6022 9.62745 14.3964L10.4608 12.7297C10.5641 12.5247 10.8133 12.4397 11.02 12.5431C11.2258 12.6464 11.3091 12.8964 11.2066 13.1022L10.3733 14.7689C10.2991 14.9147 10.1525 14.9997 9.99995 14.9997Z" fill="black"/>
</g>
<defs>
<clipPath id="clip0_1431_19877">
<rect width="20" height="20" fill="white"/>
</clipPath>
</defs>
</svg>
