<svg width="16" height="17" viewBox="0 0 16 17" fill="none" xmlns="http://www.w3.org/2000/svg">
<g clip-path="url(#clip0_11377_20438)">
<path d="M8.82263 13.774L14 8.47266" stroke="#29B473" stroke-width="1.37" stroke-linecap="round" stroke-linejoin="round"/>
<path d="M10.6666 4.27254L5.05731 9.99654C4.80734 10.2466 4.66692 10.5857 4.66692 10.9392C4.66692 11.2928 4.80734 11.6318 5.05731 11.8819C5.30734 12.1318 5.64642 12.2723 5.99997 12.2723C6.35353 12.2723 6.6926 12.1318 6.94264 11.8819L12.552 6.15788C13.0519 5.6578 13.3327 4.97965 13.3327 4.27254C13.3327 3.56544 13.0519 2.88728 12.552 2.38721C12.0519 1.88729 11.3737 1.60645 10.6666 1.60645C9.95954 1.60645 9.28138 1.88729 8.78131 2.38721L3.17131 8.11054C2.4211 8.86075 1.99963 9.87825 1.99963 10.9392C1.99963 12.0002 2.4211 13.0177 3.17131 13.7679C3.92151 14.5181 4.93902 14.9395 5.99997 14.9395C7.06093 14.9395 8.07843 14.5181 8.82864 13.7679" stroke="#29B473" stroke-width="1.37" stroke-linecap="round" stroke-linejoin="round"/>
</g>
<defs>
<clipPath id="clip0_11377_20438">
<rect width="16" height="16" fill="white" transform="translate(0 0.272461)"/>
</clipPath>
</defs>
</svg>
