<svg width="16" height="17" viewBox="0 0 16 17" fill="none" xmlns="http://www.w3.org/2000/svg">
<g clip-path="url(#clip0_11368_18936)">
<path d="M9.99996 1.60596H3.99996C3.64634 1.60596 3.3072 1.74643 3.05715 1.99648C2.8071 2.24653 2.66663 2.58567 2.66663 2.93929V13.606C2.66663 13.9596 2.8071 14.2987 3.05715 14.5488C3.3072 14.7988 3.64634 14.9393 3.99996 14.9393H12C12.3536 14.9393 12.6927 14.7988 12.9428 14.5488C13.1928 14.2987 13.3333 13.9596 13.3333 13.606V4.93929L9.99996 1.60596Z" stroke="#29B473" stroke-width="1.37" stroke-linecap="round" stroke-linejoin="round"/>
<path d="M9.33337 1.60596V4.27262C9.33337 4.62625 9.47385 4.96538 9.7239 5.21543C9.97395 5.46548 10.3131 5.60596 10.6667 5.60596H13.3334" stroke="#29B473" stroke-width="1.37" stroke-linecap="round" stroke-linejoin="round"/>
<path d="M6 10.2723L7.33333 11.6056L10 8.93896" stroke="#29B473" stroke-width="1.37" stroke-linecap="round" stroke-linejoin="round"/>
</g>
<defs>
<clipPath id="clip0_11368_18936">
<rect width="16" height="16" fill="white" transform="translate(0 0.272461)"/>
</clipPath>
</defs>
</svg>
