<svg width="169" height="75" viewBox="0 0 169 75" fill="none" xmlns="http://www.w3.org/2000/svg">
<rect x="1" y="1.27246" width="167" height="73" rx="9.74239" fill="white"/>
<rect x="1" y="1.27246" width="167" height="73" rx="9.74239" stroke="#CBD0DC" stroke-linecap="round" stroke-dasharray="3.7 3.7"/>
<path d="M84.6863 27.7725C88.8113 27.7725 92.1863 24.3975 92.1863 20.2725C92.1863 16.1475 88.8113 12.7725 84.6863 12.7725C80.5613 12.7725 77.1863 16.1475 77.1863 20.2725C77.1863 24.3975 80.5613 27.7725 84.6863 27.7725Z" stroke="#282F3A" stroke-width="1.5" stroke-linecap="round" stroke-linejoin="round"/>
<path d="M81.6863 20.2729H87.6863" stroke="#282F3A" stroke-width="1.5" stroke-linecap="round" stroke-linejoin="round"/>
<path d="M84.6874 23.2725V17.2725" stroke="#282F3A" stroke-width="1.5" stroke-linecap="round" stroke-linejoin="round"/>
<path d="M27.417 47.4529C26.769 47.4529 26.197 47.3209 25.701 47.0569C25.213 46.7849 24.833 46.4089 24.561 45.9289C24.289 45.4409 24.153 44.8809 24.153 44.2489V38.8729H25.329V44.2489C25.329 44.6649 25.417 45.0329 25.593 45.3529C25.777 45.6729 26.025 45.9209 26.337 46.0969C26.657 46.2729 27.025 46.3609 27.441 46.3609C27.857 46.3609 28.225 46.2729 28.545 46.0969C28.865 45.9209 29.113 45.6729 29.289 45.3529C29.465 45.0329 29.553 44.6649 29.553 44.2489V38.8729H30.741V44.2489C30.741 44.8809 30.601 45.4409 30.321 45.9289C30.049 46.4089 29.661 46.7849 29.157 47.0569C28.661 47.3209 28.081 47.4529 27.417 47.4529ZM32.5296 49.6729V41.2729H33.5976L33.6696 42.3769V49.6729H32.5296ZM35.6376 47.4169C35.1336 47.4169 34.6936 47.2849 34.3176 47.0209C33.9496 46.7569 33.6656 46.3889 33.4656 45.9169C33.2656 45.4449 33.1656 44.8969 33.1656 44.2729C33.1656 43.6409 33.2656 43.0929 33.4656 42.6289C33.6656 42.1569 33.9496 41.7889 34.3176 41.5249C34.6936 41.2609 35.1336 41.1289 35.6376 41.1289C36.1736 41.1289 36.6456 41.2609 37.0536 41.5249C37.4616 41.7889 37.7776 42.1569 38.0016 42.6289C38.2336 43.0929 38.3496 43.6409 38.3496 44.2729C38.3496 44.8969 38.2336 45.4449 38.0016 45.9169C37.7776 46.3889 37.4616 46.7569 37.0536 47.0209C36.6456 47.2849 36.1736 47.4169 35.6376 47.4169ZM35.3616 46.3849C35.7216 46.3849 36.0376 46.2969 36.3096 46.1209C36.5816 45.9369 36.7936 45.6889 36.9456 45.3769C37.1056 45.0569 37.1856 44.6889 37.1856 44.2729C37.1856 43.8569 37.1096 43.4929 36.9576 43.1809C36.8056 42.8609 36.5936 42.6129 36.3216 42.4369C36.0496 42.2529 35.7336 42.1609 35.3736 42.1609C35.0456 42.1609 34.7496 42.2529 34.4856 42.4369C34.2296 42.6129 34.0296 42.8609 33.8856 43.1809C33.7416 43.5009 33.6696 43.8649 33.6696 44.2729C33.6696 44.6889 33.7416 45.0569 33.8856 45.3769C34.0296 45.6889 34.2296 45.9369 34.4856 46.1209C34.7416 46.2969 35.0336 46.3849 35.3616 46.3849ZM39.5946 47.2729V38.8729H40.7346V47.2729H39.5946ZM45.0254 47.4169C44.4254 47.4169 43.8974 47.2849 43.4414 47.0209C42.9854 46.7489 42.6254 46.3769 42.3614 45.9049C42.1054 45.4329 41.9774 44.8889 41.9774 44.2729C41.9774 43.6569 42.1054 43.1129 42.3614 42.6409C42.6174 42.1689 42.9734 41.8009 43.4294 41.5369C43.8854 41.2649 44.4094 41.1289 45.0014 41.1289C45.5934 41.1289 46.1174 41.2649 46.5734 41.5369C47.0294 41.8009 47.3854 42.1689 47.6414 42.6409C47.8974 43.1129 48.0254 43.6569 48.0254 44.2729C48.0254 44.8889 47.8974 45.4329 47.6414 45.9049C47.3854 46.3769 47.0294 46.7489 46.5734 47.0209C46.1254 47.2849 45.6094 47.4169 45.0254 47.4169ZM45.0254 46.3729C45.3854 46.3729 45.7054 46.2849 45.9854 46.1089C46.2654 45.9249 46.4814 45.6769 46.6334 45.3649C46.7934 45.0529 46.8734 44.6889 46.8734 44.2729C46.8734 43.8569 46.7934 43.4929 46.6334 43.1809C46.4814 42.8689 46.2614 42.6249 45.9734 42.4489C45.6854 42.2649 45.3614 42.1729 45.0014 42.1729C44.6334 42.1729 44.3094 42.2649 44.0294 42.4489C43.7494 42.6249 43.5294 42.8689 43.3694 43.1809C43.2094 43.4929 43.1294 43.8569 43.1294 44.2729C43.1294 44.6889 43.2094 45.0529 43.3694 45.3649C43.5294 45.6769 43.7534 45.9249 44.0414 46.1089C44.3294 46.2849 44.6574 46.3729 45.0254 46.3729ZM52.9583 47.2729L52.9103 46.2289V44.1409C52.9103 43.7009 52.8583 43.3329 52.7543 43.0369C52.6583 42.7409 52.5063 42.5169 52.2983 42.3649C52.0983 42.2129 51.8303 42.1369 51.4943 42.1369C51.1823 42.1369 50.9103 42.2009 50.6783 42.3289C50.4543 42.4569 50.2663 42.6569 50.1143 42.9289L49.1063 42.5449C49.2503 42.2729 49.4303 42.0329 49.6463 41.8249C49.8623 41.6089 50.1223 41.4409 50.4263 41.3209C50.7303 41.1929 51.0863 41.1289 51.4943 41.1289C52.0623 41.1289 52.5343 41.2409 52.9103 41.4649C53.2863 41.6889 53.5663 42.0129 53.7503 42.4369C53.9423 42.8609 54.0343 43.3849 54.0263 44.0089L54.0143 47.2729H52.9583ZM51.1943 47.4169C50.4823 47.4169 49.9263 47.2569 49.5263 46.9369C49.1343 46.6089 48.9383 46.1569 48.9383 45.5809C48.9383 44.9649 49.1423 44.4969 49.5503 44.1769C49.9663 43.8489 50.5423 43.6849 51.2783 43.6849H52.9463V44.5849H51.5903C51.0383 44.5849 50.6503 44.6729 50.4263 44.8489C50.2023 45.0169 50.0903 45.2529 50.0903 45.5569C50.0903 45.8369 50.1943 46.0569 50.4023 46.2169C50.6183 46.3689 50.9143 46.4449 51.2903 46.4449C51.6183 46.4449 51.9023 46.3769 52.1423 46.2409C52.3823 46.0969 52.5703 45.8969 52.7063 45.6409C52.8423 45.3849 52.9103 45.0929 52.9103 44.7649H53.3063C53.3063 45.5809 53.1303 46.2289 52.7783 46.7089C52.4343 47.1809 51.9063 47.4169 51.1943 47.4169ZM59.8538 47.2729L59.8058 46.1569V38.8729H60.9338V47.2729H59.8538ZM57.8378 47.4169C57.2938 47.4169 56.8178 47.2849 56.4098 47.0209C56.0098 46.7569 55.6938 46.3889 55.4618 45.9169C55.2378 45.4449 55.1258 44.8969 55.1258 44.2729C55.1258 43.6409 55.2378 43.0929 55.4618 42.6289C55.6938 42.1569 56.0098 41.7889 56.4098 41.5249C56.8178 41.2609 57.2938 41.1289 57.8378 41.1289C58.3418 41.1289 58.7778 41.2609 59.1458 41.5249C59.5218 41.7889 59.8098 42.1569 60.0098 42.6289C60.2098 43.0929 60.3098 43.6409 60.3098 44.2729C60.3098 44.8969 60.2098 45.4449 60.0098 45.9169C59.8098 46.3889 59.5218 46.7569 59.1458 47.0209C58.7778 47.2849 58.3418 47.4169 57.8378 47.4169ZM58.1018 46.3849C58.4378 46.3849 58.7338 46.2969 58.9898 46.1209C59.2458 45.9369 59.4458 45.6889 59.5898 45.3769C59.7338 45.0569 59.8058 44.6889 59.8058 44.2729C59.8058 43.8569 59.7338 43.4929 59.5898 43.1809C59.4458 42.8609 59.2458 42.6129 58.9898 42.4369C58.7338 42.2529 58.4338 42.1609 58.0898 42.1609C57.7378 42.1609 57.4258 42.2529 57.1538 42.4369C56.8818 42.6129 56.6698 42.8609 56.5178 43.1809C56.3658 43.4929 56.2898 43.8569 56.2898 44.2729C56.2898 44.6889 56.3658 45.0569 56.5178 45.3769C56.6778 45.6889 56.8938 45.9369 57.1658 46.1209C57.4378 46.2969 57.7498 46.3849 58.1018 46.3849ZM68.8662 47.4529C68.2182 47.4529 67.6462 47.3209 67.1502 47.0569C66.6622 46.7849 66.2822 46.4089 66.0102 45.9289C65.7382 45.4409 65.6022 44.8809 65.6022 44.2489V38.8729H66.7782V44.2489C66.7782 44.6649 66.8662 45.0329 67.0422 45.3529C67.2262 45.6729 67.4742 45.9209 67.7862 46.0969C68.1062 46.2729 68.4742 46.3609 68.8902 46.3609C69.3062 46.3609 69.6742 46.2729 69.9942 46.0969C70.3142 45.9209 70.5622 45.6729 70.7382 45.3529C70.9142 45.0329 71.0022 44.6649 71.0022 44.2489V38.8729H72.1902V44.2489C72.1902 44.8809 72.0502 45.4409 71.7702 45.9289C71.4982 46.4089 71.1102 46.7849 70.6062 47.0569C70.1102 47.3209 69.5302 47.4529 68.8662 47.4529ZM73.9788 49.6729V41.2729H75.0468L75.1188 42.3769V49.6729H73.9788ZM77.0868 47.4169C76.5828 47.4169 76.1428 47.2849 75.7668 47.0209C75.3988 46.7569 75.1148 46.3889 74.9148 45.9169C74.7148 45.4449 74.6148 44.8969 74.6148 44.2729C74.6148 43.6409 74.7148 43.0929 74.9148 42.6289C75.1148 42.1569 75.3988 41.7889 75.7668 41.5249C76.1428 41.2609 76.5828 41.1289 77.0868 41.1289C77.6228 41.1289 78.0948 41.2609 78.5028 41.5249C78.9108 41.7889 79.2268 42.1569 79.4508 42.6289C79.6828 43.0929 79.7988 43.6409 79.7988 44.2729C79.7988 44.8969 79.6828 45.4449 79.4508 45.9169C79.2268 46.3889 78.9108 46.7569 78.5028 47.0209C78.0948 47.2849 77.6228 47.4169 77.0868 47.4169ZM76.8108 46.3849C77.1708 46.3849 77.4868 46.2969 77.7588 46.1209C78.0308 45.9369 78.2428 45.6889 78.3948 45.3769C78.5548 45.0569 78.6348 44.6889 78.6348 44.2729C78.6348 43.8569 78.5588 43.4929 78.4068 43.1809C78.2548 42.8609 78.0428 42.6129 77.7708 42.4369C77.4988 42.2529 77.1828 42.1609 76.8228 42.1609C76.4948 42.1609 76.1988 42.2529 75.9348 42.4369C75.6788 42.6129 75.4788 42.8609 75.3348 43.1809C75.1908 43.5009 75.1188 43.8649 75.1188 44.2729C75.1188 44.6889 75.1908 45.0569 75.3348 45.3769C75.4788 45.6889 75.6788 45.9369 75.9348 46.1209C76.1908 46.2969 76.4828 46.3849 76.8108 46.3849ZM86.2895 47.4169C85.6895 47.4169 85.2255 47.2649 84.8975 46.9609C84.5695 46.6489 84.4055 46.2049 84.4055 45.6289V39.4009H85.5455V45.4609C85.5455 45.7569 85.6175 45.9849 85.7615 46.1449C85.9135 46.2969 86.1295 46.3729 86.4095 46.3729C86.4895 46.3729 86.5775 46.3569 86.6735 46.3249C86.7695 46.2929 86.8855 46.2289 87.0215 46.1329L87.4535 47.0209C87.2455 47.1569 87.0455 47.2569 86.8535 47.3209C86.6695 47.3849 86.4815 47.4169 86.2895 47.4169ZM83.3855 42.2569V41.2729H87.2495V42.2569H83.3855ZM91.2441 47.4169C90.6441 47.4169 90.1161 47.2849 89.6601 47.0209C89.2041 46.7489 88.8441 46.3769 88.5801 45.9049C88.3241 45.4329 88.1961 44.8889 88.1961 44.2729C88.1961 43.6569 88.3241 43.1129 88.5801 42.6409C88.8361 42.1689 89.1921 41.8009 89.6481 41.5369C90.1041 41.2649 90.6281 41.1289 91.2201 41.1289C91.8121 41.1289 92.3361 41.2649 92.7921 41.5369C93.2481 41.8009 93.6041 42.1689 93.8601 42.6409C94.1161 43.1129 94.2441 43.6569 94.2441 44.2729C94.2441 44.8889 94.1161 45.4329 93.8601 45.9049C93.6041 46.3769 93.2481 46.7489 92.7921 47.0209C92.3441 47.2849 91.8281 47.4169 91.2441 47.4169ZM91.2441 46.3729C91.6041 46.3729 91.9241 46.2849 92.2041 46.1089C92.4841 45.9249 92.7001 45.6769 92.8521 45.3649C93.0121 45.0529 93.0921 44.6889 93.0921 44.2729C93.0921 43.8569 93.0121 43.4929 92.8521 43.1809C92.7001 42.8689 92.4801 42.6249 92.1921 42.4489C91.9041 42.2649 91.5801 42.1729 91.2201 42.1729C90.8521 42.1729 90.5281 42.2649 90.2481 42.4489C89.9681 42.6249 89.7481 42.8689 89.5881 43.1809C89.4281 43.4929 89.3481 43.8569 89.3481 44.2729C89.3481 44.6889 89.4281 45.0529 89.5881 45.3649C89.7481 45.6769 89.9721 45.9249 90.2601 46.1089C90.5481 46.2849 90.8761 46.3729 91.2441 46.3729ZM100.895 47.4169C100.463 47.4169 100.071 47.3529 99.7187 47.2249C99.3667 47.0969 99.0707 46.9209 98.8307 46.6969C98.5907 46.4729 98.4067 46.2289 98.2787 45.9649L99.2987 45.4969C99.3787 45.6089 99.4787 45.7369 99.5987 45.8809C99.7187 46.0169 99.8787 46.1329 100.079 46.2289C100.279 46.3249 100.527 46.3729 100.823 46.3729C101.327 46.3729 101.727 46.2289 102.023 45.9409C102.327 45.6529 102.479 45.2889 102.479 44.8489C102.479 44.5209 102.391 44.2449 102.215 44.0209C102.039 43.7889 101.779 43.6129 101.435 43.4929C101.099 43.3729 100.687 43.3129 100.199 43.3129H99.8987V42.4249H100.175C100.671 42.4249 101.127 42.4809 101.543 42.5929C101.967 42.7049 102.339 42.8729 102.659 43.0969C102.979 43.3129 103.227 43.5769 103.403 43.8889C103.579 44.2009 103.667 44.5569 103.667 44.9569C103.667 45.4529 103.539 45.8889 103.283 46.2649C103.035 46.6329 102.699 46.9169 102.275 47.1169C101.859 47.3169 101.399 47.4169 100.895 47.4169ZM99.8987 43.1689V42.3169H100.199C100.855 42.3169 101.367 42.2049 101.735 41.9809C102.103 41.7569 102.287 41.4409 102.287 41.0329C102.287 40.8009 102.223 40.5929 102.095 40.4089C101.975 40.2169 101.803 40.0649 101.579 39.9529C101.363 39.8329 101.103 39.7729 100.799 39.7729C100.607 39.7729 100.419 39.8049 100.235 39.8689C100.059 39.9249 99.8947 40.0129 99.7427 40.1329C99.5907 40.2449 99.4587 40.3929 99.3467 40.5769L98.3627 40.1329C98.4987 39.8369 98.6907 39.5849 98.9387 39.3769C99.1867 39.1689 99.4747 39.0089 99.8027 38.8969C100.131 38.7849 100.479 38.7289 100.847 38.7289C101.351 38.7289 101.799 38.8249 102.191 39.0169C102.583 39.2089 102.891 39.4729 103.115 39.8089C103.347 40.1449 103.463 40.5249 103.463 40.9489C103.463 41.3089 103.375 41.6289 103.199 41.9089C103.031 42.1809 102.795 42.4129 102.491 42.6049C102.187 42.7889 101.835 42.9289 101.435 43.0249C101.043 43.1209 100.619 43.1689 100.163 43.1689H99.8987ZM108.191 47.2729V38.8729H109.367V47.2729H108.191ZM111.231 47.2729V41.2729H112.299L112.347 42.1009C112.539 41.7809 112.779 41.5409 113.067 41.3809C113.355 41.2129 113.687 41.1289 114.063 41.1289C114.543 41.1289 114.951 41.2409 115.287 41.4649C115.623 41.6809 115.867 42.0129 116.019 42.4609C116.195 42.0289 116.443 41.7009 116.763 41.4769C117.083 41.2449 117.463 41.1289 117.903 41.1289C118.583 41.1289 119.115 41.3529 119.499 41.8009C119.883 42.2409 120.071 42.9209 120.063 43.8409V47.2729H118.935V44.2009C118.935 43.6569 118.875 43.2449 118.755 42.9649C118.643 42.6769 118.491 42.4769 118.299 42.3649C118.107 42.2529 117.883 42.1929 117.627 42.1849C117.179 42.1849 116.831 42.3569 116.583 42.7009C116.343 43.0449 116.223 43.5289 116.223 44.1529V47.2729H115.083V44.2009C115.083 43.6569 115.027 43.2449 114.915 42.9649C114.803 42.6769 114.647 42.4769 114.447 42.3649C114.255 42.2529 114.031 42.1929 113.775 42.1849C113.327 42.1849 112.979 42.3569 112.731 42.7009C112.491 43.0449 112.371 43.5289 112.371 44.1529V47.2729H111.231ZM125.204 47.2729L125.156 46.2289V44.1409C125.156 43.7009 125.104 43.3329 125 43.0369C124.904 42.7409 124.752 42.5169 124.544 42.3649C124.344 42.2129 124.076 42.1369 123.74 42.1369C123.428 42.1369 123.156 42.2009 122.924 42.3289C122.7 42.4569 122.512 42.6569 122.36 42.9289L121.352 42.5449C121.496 42.2729 121.676 42.0329 121.892 41.8249C122.108 41.6089 122.368 41.4409 122.672 41.3209C122.976 41.1929 123.332 41.1289 123.74 41.1289C124.308 41.1289 124.78 41.2409 125.156 41.4649C125.532 41.6889 125.812 42.0129 125.996 42.4369C126.188 42.8609 126.28 43.3849 126.272 44.0089L126.26 47.2729H125.204ZM123.44 47.4169C122.728 47.4169 122.172 47.2569 121.772 46.9369C121.38 46.6089 121.184 46.1569 121.184 45.5809C121.184 44.9649 121.388 44.4969 121.796 44.1769C122.212 43.8489 122.788 43.6849 123.524 43.6849H125.192V44.5849H123.836C123.284 44.5849 122.896 44.6729 122.672 44.8489C122.448 45.0169 122.336 45.2529 122.336 45.5569C122.336 45.8369 122.44 46.0569 122.648 46.2169C122.864 46.3689 123.16 46.4449 123.536 46.4449C123.864 46.4449 124.148 46.3769 124.388 46.2409C124.628 46.0969 124.816 45.8969 124.952 45.6409C125.088 45.3849 125.156 45.0929 125.156 44.7649H125.552C125.552 45.5809 125.376 46.2289 125.024 46.7089C124.68 47.1809 124.152 47.4169 123.44 47.4169ZM130.192 49.8289C129.792 49.8289 129.428 49.7889 129.1 49.7089C128.772 49.6369 128.496 49.5529 128.272 49.4569C128.048 49.3609 127.88 49.2769 127.768 49.2049L128.2 48.2809C128.304 48.3449 128.452 48.4169 128.644 48.4969C128.836 48.5849 129.06 48.6569 129.316 48.7129C129.572 48.7769 129.856 48.8089 130.168 48.8089C130.536 48.8089 130.864 48.7329 131.152 48.5809C131.44 48.4369 131.664 48.2089 131.824 47.8969C131.992 47.5849 132.076 47.1849 132.076 46.6969V41.2729H133.216V46.6729C133.216 47.3609 133.084 47.9369 132.82 48.4009C132.564 48.8729 132.208 49.2289 131.752 49.4689C131.304 49.7089 130.784 49.8289 130.192 49.8289ZM130.084 47.1889C129.54 47.1889 129.064 47.0649 128.656 46.8169C128.256 46.5609 127.94 46.2089 127.708 45.7609C127.484 45.3049 127.372 44.7809 127.372 44.1889C127.372 43.5729 127.484 43.0369 127.708 42.5809C127.94 42.1249 128.256 41.7689 128.656 41.5129C129.064 41.2569 129.54 41.1289 130.084 41.1289C130.58 41.1289 131.012 41.2569 131.38 41.5129C131.756 41.7689 132.044 42.1289 132.244 42.5929C132.452 43.0489 132.556 43.5849 132.556 44.2009C132.556 44.7929 132.452 45.3169 132.244 45.7729C132.044 46.2209 131.756 46.5689 131.38 46.8169C131.012 47.0649 130.58 47.1889 130.084 47.1889ZM130.372 46.2289C130.708 46.2289 131 46.1409 131.248 45.9649C131.496 45.7809 131.692 45.5369 131.836 45.2329C131.98 44.9209 132.052 44.5649 132.052 44.1649C132.052 43.7649 131.98 43.4129 131.836 43.1089C131.692 42.8049 131.492 42.5689 131.236 42.4009C130.988 42.2249 130.696 42.1369 130.36 42.1369C130.008 42.1369 129.696 42.2249 129.424 42.4009C129.16 42.5689 128.952 42.8049 128.8 43.1089C128.648 43.4129 128.572 43.7649 128.572 44.1649C128.572 44.5649 128.648 44.9209 128.8 45.2329C128.96 45.5369 129.172 45.7809 129.436 45.9649C129.708 46.1409 130.02 46.2289 130.372 46.2289ZM137.45 47.4169C136.866 47.4169 136.35 47.2849 135.902 47.0209C135.454 46.7489 135.102 46.3769 134.846 45.9049C134.59 45.4329 134.462 44.8889 134.462 44.2729C134.462 43.6569 134.59 43.1129 134.846 42.6409C135.102 42.1689 135.454 41.8009 135.902 41.5369C136.358 41.2649 136.878 41.1289 137.462 41.1289C138.014 41.1289 138.498 41.2689 138.914 41.5489C139.33 41.8209 139.654 42.2129 139.886 42.7249C140.126 43.2289 140.246 43.8249 140.246 44.5129H135.398L135.614 44.3329C135.614 44.7569 135.698 45.1249 135.866 45.4369C136.034 45.7489 136.262 45.9889 136.55 46.1569C136.838 46.3169 137.166 46.3969 137.534 46.3969C137.934 46.3969 138.266 46.3049 138.53 46.1209C138.802 45.9289 139.014 45.6889 139.166 45.4009L140.15 45.8569C139.99 46.1689 139.782 46.4449 139.526 46.6849C139.27 46.9169 138.966 47.0969 138.614 47.2249C138.27 47.3529 137.882 47.4169 137.45 47.4169ZM135.686 43.7929L135.458 43.6129H139.25L139.034 43.7929C139.034 43.4409 138.962 43.1409 138.818 42.8929C138.674 42.6369 138.482 42.4449 138.242 42.3169C138.002 42.1809 137.734 42.1129 137.438 42.1129C137.15 42.1129 136.87 42.1809 136.598 42.3169C136.334 42.4449 136.114 42.6329 135.938 42.8809C135.77 43.1289 135.686 43.4329 135.686 43.7929ZM143.52 47.4169C143.096 47.4169 142.716 47.3529 142.38 47.2249C142.052 47.0969 141.772 46.9249 141.54 46.7089C141.316 46.4929 141.148 46.2489 141.036 45.9769L142.02 45.5449C142.148 45.7929 142.34 45.9969 142.596 46.1569C142.852 46.3169 143.136 46.3969 143.448 46.3969C143.792 46.3969 144.076 46.3329 144.3 46.2049C144.524 46.0769 144.636 45.8969 144.636 45.6649C144.636 45.4409 144.552 45.2649 144.384 45.1369C144.216 45.0089 143.972 44.9049 143.652 44.8249L143.088 44.6809C142.528 44.5289 142.092 44.3009 141.78 43.9969C141.476 43.6929 141.324 43.3489 141.324 42.9649C141.324 42.3809 141.512 41.9289 141.888 41.6089C142.264 41.2889 142.82 41.1289 143.556 41.1289C143.916 41.1289 144.244 41.1809 144.54 41.2849C144.844 41.3889 145.1 41.5369 145.308 41.7289C145.524 41.9209 145.676 42.1489 145.764 42.4129L144.804 42.8449C144.708 42.6049 144.544 42.4289 144.312 42.3169C144.08 42.1969 143.808 42.1369 143.496 42.1369C143.176 42.1369 142.924 42.2089 142.74 42.3529C142.556 42.4889 142.464 42.6809 142.464 42.9289C142.464 43.0649 142.54 43.1969 142.692 43.3249C142.852 43.4449 143.084 43.5449 143.388 43.6249L144.036 43.7809C144.428 43.8769 144.752 44.0249 145.008 44.2249C145.264 44.4169 145.456 44.6369 145.584 44.8849C145.712 45.1249 145.776 45.3769 145.776 45.6409C145.776 46.0009 145.676 46.3169 145.476 46.5889C145.284 46.8529 145.016 47.0569 144.672 47.2009C144.336 47.3449 143.952 47.4169 143.52 47.4169Z" fill="#282F3A"/>
<path d="M52.5431 63.0431C52.0031 63.0431 51.5264 62.9331 51.1131 62.7131C50.7064 62.4864 50.3897 62.1731 50.1631 61.7731C49.9364 61.3664 49.8231 60.8997 49.8231 60.3731V55.8931H50.8031V60.3731C50.8031 60.7197 50.8764 61.0264 51.0231 61.2931C51.1764 61.5597 51.3831 61.7664 51.6431 61.9131C51.9097 62.0597 52.2164 62.1331 52.5631 62.1331C52.9097 62.1331 53.2164 62.0597 53.4831 61.9131C53.7497 61.7664 53.9564 61.5597 54.1031 61.2931C54.2497 61.0264 54.3231 60.7197 54.3231 60.3731V55.8931H55.3131V60.3731C55.3131 60.8997 55.1964 61.3664 54.9631 61.7731C54.7364 62.1731 54.4131 62.4864 53.9931 62.7131C53.5797 62.9331 53.0964 63.0431 52.5431 63.0431ZM56.8036 64.8931V57.8931H57.6936L57.7536 58.8131V64.8931H56.8036ZM59.3936 63.0131C58.9736 63.0131 58.607 62.9031 58.2936 62.6831C57.987 62.4631 57.7503 62.1564 57.5836 61.7631C57.417 61.3697 57.3336 60.9131 57.3336 60.3931C57.3336 59.8664 57.417 59.4097 57.5836 59.0231C57.7503 58.6297 57.987 58.3231 58.2936 58.1031C58.607 57.8831 58.9736 57.7731 59.3936 57.7731C59.8403 57.7731 60.2336 57.8831 60.5736 58.1031C60.9136 58.3231 61.177 58.6297 61.3636 59.0231C61.557 59.4097 61.6536 59.8664 61.6536 60.3931C61.6536 60.9131 61.557 61.3697 61.3636 61.7631C61.177 62.1564 60.9136 62.4631 60.5736 62.6831C60.2336 62.9031 59.8403 63.0131 59.3936 63.0131ZM59.1636 62.1531C59.4636 62.1531 59.727 62.0797 59.9536 61.9331C60.1803 61.7797 60.357 61.5731 60.4836 61.3131C60.617 61.0464 60.6836 60.7397 60.6836 60.3931C60.6836 60.0464 60.6203 59.7431 60.4936 59.4831C60.367 59.2164 60.1903 59.0097 59.9636 58.8631C59.737 58.7097 59.4736 58.6331 59.1736 58.6331C58.9003 58.6331 58.6536 58.7097 58.4336 58.8631C58.2203 59.0097 58.0536 59.2164 57.9336 59.4831C57.8136 59.7497 57.7536 60.0531 57.7536 60.3931C57.7536 60.7397 57.8136 61.0464 57.9336 61.3131C58.0536 61.5731 58.2203 61.7797 58.4336 61.9331C58.647 62.0797 58.8903 62.1531 59.1636 62.1531ZM67.0625 63.0131C66.5625 63.0131 66.1759 62.8864 65.9025 62.6331C65.6292 62.3731 65.4925 62.0031 65.4925 61.5231V56.3331H66.4425V61.3831C66.4425 61.6297 66.5025 61.8197 66.6225 61.9531C66.7492 62.0797 66.9292 62.1431 67.1625 62.1431C67.2292 62.1431 67.3025 62.1297 67.3825 62.1031C67.4625 62.0764 67.5592 62.0231 67.6725 61.9431L68.0325 62.6831C67.8592 62.7964 67.6925 62.8797 67.5325 62.9331C67.3792 62.9864 67.2225 63.0131 67.0625 63.0131ZM64.6425 58.7131V57.8931H67.8625V58.7131H64.6425ZM71.1914 63.0131C70.6914 63.0131 70.2514 62.9031 69.8714 62.6831C69.4914 62.4564 69.1914 62.1464 68.9714 61.7531C68.758 61.3597 68.6514 60.9064 68.6514 60.3931C68.6514 59.8797 68.758 59.4264 68.9714 59.0331C69.1847 58.6397 69.4814 58.3331 69.8614 58.1131C70.2414 57.8864 70.678 57.7731 71.1714 57.7731C71.6647 57.7731 72.1014 57.8864 72.4814 58.1131C72.8614 58.3331 73.158 58.6397 73.3714 59.0331C73.5847 59.4264 73.6914 59.8797 73.6914 60.3931C73.6914 60.9064 73.5847 61.3597 73.3714 61.7531C73.158 62.1464 72.8614 62.4564 72.4814 62.6831C72.108 62.9031 71.678 63.0131 71.1914 63.0131ZM71.1914 62.1431C71.4914 62.1431 71.758 62.0697 71.9914 61.9231C72.2247 61.7697 72.4047 61.5631 72.5314 61.3031C72.6647 61.0431 72.7314 60.7397 72.7314 60.3931C72.7314 60.0464 72.6647 59.7431 72.5314 59.4831C72.4047 59.2231 72.2214 59.0197 71.9814 58.8731C71.7414 58.7197 71.4714 58.6431 71.1714 58.6431C70.8647 58.6431 70.5947 58.7197 70.3614 58.8731C70.128 59.0197 69.9447 59.2231 69.8114 59.4831C69.678 59.7431 69.6114 60.0464 69.6114 60.3931C69.6114 60.7397 69.678 61.0431 69.8114 61.3031C69.9447 61.5631 70.1314 61.7697 70.3714 61.9231C70.6114 62.0697 70.8847 62.1431 71.1914 62.1431ZM79.4235 63.0131C79.1302 63.0131 78.8302 62.9697 78.5235 62.8831C78.2235 62.7897 77.9435 62.6531 77.6835 62.4731C77.4235 62.2864 77.2169 62.0497 77.0635 61.7631L77.8935 61.3831C78.1069 61.6497 78.3402 61.8464 78.5935 61.9731C78.8469 62.0931 79.1102 62.1531 79.3835 62.1531C79.8169 62.1531 80.1669 62.0231 80.4336 61.7631C80.7002 61.5031 80.8335 61.1564 80.8335 60.7231C80.8335 60.3031 80.7035 59.9597 80.4435 59.6931C80.1835 59.4264 79.8435 59.2931 79.4235 59.2931C79.1836 59.2931 78.9536 59.3464 78.7335 59.4531C78.5135 59.5531 78.3435 59.6797 78.2235 59.8331L77.3335 59.6331L77.6935 55.8931H81.4835V56.7931H78.5535L78.3435 58.8631C78.5302 58.7564 78.7369 58.6697 78.9635 58.6031C79.1902 58.5364 79.4202 58.5031 79.6535 58.5031C80.0735 58.5031 80.4469 58.5964 80.7736 58.7831C81.1002 58.9697 81.3569 59.2297 81.5436 59.5631C81.7369 59.8897 81.8335 60.2664 81.8335 60.6931C81.8335 61.1531 81.7302 61.5564 81.5236 61.9031C81.3169 62.2497 81.0336 62.5231 80.6735 62.7231C80.3135 62.9164 79.8969 63.0131 79.4235 63.0131ZM83.1653 62.8931V55.8931H84.2053L86.5253 59.3231L88.8353 55.8931H89.8753V62.8931H88.8953V57.4731L86.5153 60.9831L84.1453 57.4831V62.8931H83.1653ZM91.6516 62.8931V55.8931H93.9016C94.3816 55.8931 94.7916 55.9664 95.1316 56.1131C95.4783 56.2597 95.7449 56.4764 95.9316 56.7631C96.1249 57.0497 96.2216 57.4031 96.2216 57.8231C96.2216 58.1431 96.1449 58.4297 95.9916 58.6831C95.8449 58.9297 95.6383 59.1331 95.3716 59.2931C95.7183 59.4597 95.9816 59.6831 96.1616 59.9631C96.3483 60.2431 96.4416 60.5764 96.4416 60.9631C96.4416 61.3697 96.3483 61.7197 96.1616 62.0131C95.9816 62.2997 95.7249 62.5197 95.3916 62.6731C95.0583 62.8197 94.6583 62.8931 94.1916 62.8931H91.6516ZM92.6216 62.0031H94.1316C94.5449 62.0031 94.8649 61.9064 95.0916 61.7131C95.3249 61.5131 95.4416 61.2464 95.4416 60.9131C95.4416 60.5397 95.3083 60.2531 95.0416 60.0531C94.7816 59.8464 94.4149 59.7431 93.9416 59.7431H92.6216V62.0031ZM92.6216 58.9031H94.0616C94.4216 58.9031 94.7049 58.8064 94.9116 58.6131C95.1249 58.4197 95.2316 58.1531 95.2316 57.8131C95.2316 57.4597 95.1116 57.1897 94.8716 57.0031C94.6316 56.8097 94.2949 56.7131 93.8616 56.7131H92.6216V58.9031ZM97.2449 64.0431L97.8249 61.8631H98.8549L98.0149 64.0431H97.2449ZM103.74 63.0131C103.466 63.0131 103.22 62.9731 103 62.8931C102.786 62.8131 102.596 62.7097 102.43 62.5831C102.263 62.4497 102.123 62.3031 102.01 62.1431C101.896 61.9764 101.806 61.8097 101.74 61.6431L102.53 61.2431C102.656 61.5031 102.816 61.7131 103.01 61.8731C103.21 62.0331 103.453 62.1131 103.74 62.1131C103.973 62.1131 104.196 62.0597 104.41 61.9531C104.623 61.8464 104.8 61.6697 104.94 61.4231C105.08 61.1697 105.15 60.8397 105.15 60.4331V55.8931H106.13V60.7831C106.13 61.1497 106.063 61.4731 105.93 61.7531C105.803 62.0264 105.626 62.2597 105.4 62.4531C105.18 62.6397 104.926 62.7797 104.64 62.8731C104.353 62.9664 104.053 63.0131 103.74 63.0131ZM107.814 62.8931V55.8931H110.174C110.64 55.8931 111.05 55.9897 111.404 56.1831C111.764 56.3697 112.044 56.6331 112.244 56.9731C112.45 57.3064 112.554 57.6964 112.554 58.1431C112.554 58.5764 112.46 58.9631 112.274 59.3031C112.087 59.6431 111.827 59.9097 111.494 60.1031C111.167 60.2964 110.79 60.3931 110.364 60.3931H108.794V62.8931H107.814ZM108.794 59.4831H110.354C110.707 59.4831 110.997 59.3597 111.224 59.1131C111.45 58.8597 111.564 58.5364 111.564 58.1431C111.564 57.7364 111.43 57.4097 111.164 57.1631C110.904 56.9164 110.57 56.7931 110.164 56.7931H108.794V59.4831ZM116.853 63.0131C116.146 63.0131 115.516 62.8597 114.963 62.5531C114.416 62.2397 113.986 61.8131 113.673 61.2731C113.366 60.7264 113.213 60.1031 113.213 59.4031C113.213 58.6897 113.366 58.0631 113.673 57.5231C113.986 56.9764 114.416 56.5497 114.963 56.2431C115.516 55.9297 116.146 55.7731 116.853 55.7731C117.24 55.7731 117.61 55.8364 117.963 55.9631C118.323 56.0831 118.646 56.2531 118.933 56.4731C119.226 56.6864 119.463 56.9331 119.643 57.2131L118.853 57.7331C118.72 57.5264 118.546 57.3431 118.333 57.1831C118.12 57.0231 117.883 56.8997 117.623 56.8131C117.37 56.7197 117.113 56.6731 116.853 56.6731C116.34 56.6731 115.883 56.7897 115.483 57.0231C115.09 57.2564 114.78 57.5764 114.553 57.9831C114.326 58.3897 114.213 58.8631 114.213 59.4031C114.213 59.9297 114.323 60.3964 114.543 60.8031C114.77 61.2097 115.083 61.5297 115.483 61.7631C115.89 61.9964 116.353 62.1131 116.873 62.1131C117.293 62.1131 117.666 62.0264 117.993 61.8531C118.326 61.6797 118.586 61.4364 118.773 61.1231C118.966 60.8097 119.063 60.4464 119.063 60.0331L120.013 59.9431C120.013 60.5631 119.876 61.1031 119.603 61.5631C119.336 62.0231 118.966 62.3797 118.493 62.6331C118.02 62.8864 117.473 63.0131 116.853 63.0131ZM117.363 60.0931V59.2731H120.013V59.9931L119.513 60.0931H117.363Z" fill="#A9ACB4"/>
</svg>
