<svg width="22" height="22" viewBox="0 0 22 22" fill="none" xmlns="http://www.w3.org/2000/svg">
<path d="M6.14209 8.48828L11.0004 11.3024L15.8221 8.50661" stroke="#007AFF" stroke-width="1.3" stroke-linecap="round" stroke-linejoin="round"/>
<path d="M11.0005 16.2888V11.293" stroke="#007AFF" stroke-width="1.3" stroke-linecap="round" stroke-linejoin="round"/>
<path d="M9.86357 5.76538L6.93022 7.39704C6.27022 7.76371 5.72021 8.68954 5.72021 9.45037V12.5579C5.72021 13.3187 6.26105 14.2445 6.93022 14.6112L9.86357 16.2429C10.4869 16.5912 11.5136 16.5912 12.1461 16.2429L15.0794 14.6112C15.7394 14.2445 16.2894 13.3187 16.2894 12.5579V9.44121C16.2894 8.68038 15.7486 7.75454 15.0794 7.38787L12.1461 5.75621C11.5136 5.40787 10.4869 5.40788 9.86357 5.76538Z" stroke="#007AFF" stroke-width="1.3" stroke-linecap="round" stroke-linejoin="round"/>
<path d="M20.1667 13.75C20.1667 17.2975 17.2975 20.1667 13.75 20.1667L14.7125 18.5625" stroke="#007AFF" stroke-width="1.3" stroke-linecap="round" stroke-linejoin="round"/>
<path d="M1.8335 8.24967C1.8335 4.70217 4.70266 1.83301 8.25016 1.83301L7.28767 3.43717" stroke="#007AFF" stroke-width="1.3" stroke-linecap="round" stroke-linejoin="round"/>
</svg>
