<svg width="22" height="22" viewBox="0 0 22 22" fill="none" xmlns="http://www.w3.org/2000/svg">
<path d="M8.07566 1.83301L4.75732 5.16051" stroke="#007AFF" stroke-width="1.3" stroke-miterlimit="10" stroke-linecap="round" stroke-linejoin="round"/>
<path d="M13.9243 1.83301L17.2426 5.16051" stroke="#007AFF" stroke-width="1.3" stroke-miterlimit="10" stroke-linecap="round" stroke-linejoin="round"/>
<path d="M1.83337 7.19564C1.83337 5.4998 2.74087 5.3623 3.86837 5.3623H18.1317C19.2592 5.3623 20.1667 5.4998 20.1667 7.19564C20.1667 9.16647 19.2592 9.02897 18.1317 9.02897H3.86837C2.74087 9.02897 1.83337 9.16647 1.83337 7.19564Z" stroke="#007AFF" stroke-width="1.3"/>
<path d="M8.94678 12.833V16.0872" stroke="#007AFF" stroke-width="1.3" stroke-linecap="round"/>
<path d="M13.1636 12.833V16.0872" stroke="#007AFF" stroke-width="1.3" stroke-linecap="round"/>
<path d="M3.2085 9.16699L4.501 17.087C4.79433 18.8653 5.50016 20.167 8.12183 20.167H13.6493C16.5002 20.167 16.9218 18.9203 17.2518 17.197L18.7918 9.16699" stroke="#007AFF" stroke-width="1.3" stroke-linecap="round"/>
</svg>
