<svg width="22" height="22" viewBox="0 0 22 22" fill="none" xmlns="http://www.w3.org/2000/svg">
<path d="M8.53418 13.4748L9.90918 14.8498L13.5758 11.1831" stroke="#007AFF" stroke-width="1.3" stroke-linecap="round" stroke-linejoin="round"/>
<path d="M9.16671 5.50016H12.8334C14.6667 5.50016 14.6667 4.5835 14.6667 3.66683C14.6667 1.8335 13.75 1.8335 12.8334 1.8335H9.16671C8.25004 1.8335 7.33337 1.8335 7.33337 3.66683C7.33337 5.50016 8.25004 5.50016 9.16671 5.50016Z" stroke="#007AFF" stroke-width="1.3" stroke-miterlimit="10" stroke-linecap="round" stroke-linejoin="round"/>
<path d="M14.6667 3.68506C17.7192 3.85006 19.25 4.97756 19.25 9.16673V14.6667C19.25 18.3334 18.3333 20.1667 13.75 20.1667H8.25C3.66667 20.1667 2.75 18.3334 2.75 14.6667V9.16673C2.75 4.98673 4.28083 3.85006 7.33333 3.68506" stroke="#007AFF" stroke-width="1.3" stroke-miterlimit="10" stroke-linecap="round" stroke-linejoin="round"/>
</svg>
