<svg width="22" height="22" viewBox="0 0 22 22" fill="none" xmlns="http://www.w3.org/2000/svg">
<path d="M20.1667 9.99134V3.75801C20.1667 2.38301 19.58 1.83301 18.1225 1.83301H14.4192C12.9617 1.83301 12.375 2.38301 12.375 3.75801V9.99134C12.375 11.3663 12.9617 11.9163 14.4192 11.9163H18.1225C19.58 11.9163 20.1667 11.3663 20.1667 9.99134Z" stroke="#007AFF" stroke-width="1.3" stroke-linecap="round" stroke-linejoin="round"/>
<path d="M20.1667 18.242V16.592C20.1667 15.217 19.58 14.667 18.1225 14.667H14.4192C12.9617 14.667 12.375 15.217 12.375 16.592V18.242C12.375 19.617 12.9617 20.167 14.4192 20.167H18.1225C19.58 20.167 20.1667 19.617 20.1667 18.242Z" stroke="#007AFF" stroke-width="1.3" stroke-linecap="round" stroke-linejoin="round"/>
<path d="M9.62504 12.008V18.2413C9.62504 19.6163 9.03837 20.1663 7.58087 20.1663H3.87754C2.42004 20.1663 1.83337 19.6163 1.83337 18.2413V12.008C1.83337 10.633 2.42004 10.083 3.87754 10.083H7.58087C9.03837 10.083 9.62504 10.633 9.62504 12.008Z" stroke="#007AFF" stroke-width="1.3" stroke-linecap="round" stroke-linejoin="round"/>
<path d="M9.62504 3.75801V5.40801C9.62504 6.78301 9.03837 7.33301 7.58087 7.33301H3.87754C2.42004 7.33301 1.83337 6.78301 1.83337 5.40801V3.75801C1.83337 2.38301 2.42004 1.83301 3.87754 1.83301H7.58087C9.03837 1.83301 9.62504 2.38301 9.62504 3.75801Z" stroke="#007AFF" stroke-width="1.3" stroke-linecap="round" stroke-linejoin="round"/>
</svg>
