<svg width="375" height="812" viewBox="0 0 375 812" fill="none" xmlns="http://www.w3.org/2000/svg">
<g clip-path="url(#clip0_2065_861)">
<rect width="375" height="812" fill="#001D4F"/>
<path opacity="0.0416667" d="M335.766 271.608C284.254 332.289 209.335 342.233 168.417 294.123C127.499 246.012 135.877 157.833 187.39 97.1523C238.902 36.4714 313.821 26.5272 354.739 74.637C395.657 122.747 387.279 210.927 335.766 271.608Z" stroke="url(#paint0_linear_2065_861)" stroke-opacity="0.5" stroke-width="0.840568"/>
<path opacity="0.0833333" d="M325.624 259.006C269.925 312.672 194.269 314.141 156.609 262.534C118.948 210.927 133.394 125.579 189.092 71.9116C244.791 18.2446 320.448 16.7761 358.109 68.3835C395.769 119.991 381.322 205.339 325.624 259.006Z" stroke="url(#paint1_linear_2065_861)" stroke-opacity="0.5" stroke-width="0.840568"/>
<path opacity="0.125" d="M316.479 245.976C257.144 292.397 181.424 285.516 147.311 230.804C113.198 176.093 133.499 94.0895 192.833 47.6687C252.168 1.24794 327.888 8.12793 362.001 62.8394C396.114 117.551 375.813 199.555 316.479 245.976Z" stroke="url(#paint2_linear_2065_861)" stroke-opacity="0.5" stroke-width="0.840568"/>
<path opacity="0.166667" d="M308.36 232.637C245.955 271.645 170.837 256.612 140.534 199.213C110.231 141.815 136.138 63.6342 198.543 24.6263C260.948 -14.3815 336.066 0.651254 366.369 58.0494C396.672 115.448 370.765 193.629 308.36 232.637Z" stroke="url(#paint3_linear_2065_861)" stroke-opacity="0.5" stroke-width="0.840568"/>
<path opacity="0.208333" d="M301.287 219.108C236.385 250.602 162.522 227.682 136.263 168.035C110.004 108.388 141.235 34.472 206.136 2.9786C271.037 -28.5146 344.9 -5.59572 371.16 54.0509C397.419 113.698 366.188 187.615 301.287 219.108Z" stroke="url(#paint4_linear_2065_861)" stroke-opacity="0.5" stroke-width="0.840568"/>
<path opacity="0.25" d="M295.269 205.506C228.45 229.447 156.475 198.974 134.461 137.535C112.446 76.0952 148.691 6.84592 215.51 -17.0955C282.328 -41.0367 354.304 -10.5635 376.318 50.8758C398.332 112.315 362.087 181.564 295.269 205.506Z" stroke="url(#paint5_linear_2065_861)" stroke-opacity="0.5" stroke-width="0.840568"/>
<path opacity="0.291667" d="M290.308 191.945C222.151 208.359 152.67 170.726 135.071 107.964C117.472 45.2032 158.392 -19.0175 226.548 -35.4316C294.704 -51.8457 364.186 -14.213 381.786 48.5482C399.385 111.31 358.464 175.531 290.308 191.945Z" stroke="url(#paint6_linear_2065_861)" stroke-opacity="0.5" stroke-width="0.840568"/>
<path opacity="0.333333" d="M286.396 178.538C217.476 187.51 151.065 143.17 138.016 79.5672C124.967 15.9645 170.201 -42.9093 239.121 -51.8816C308.041 -60.8538 374.452 -16.5143 387.501 47.0885C400.551 110.691 355.316 169.566 286.396 178.538Z" stroke="url(#paint7_linear_2065_861)" stroke-opacity="0.5" stroke-width="0.840568"/>
<path opacity="0.375" d="M283.516 165.393C214.397 167.067 151.599 116.527 143.2 52.5696C134.8 -11.3879 183.966 -64.6391 253.085 -66.3133C322.204 -67.9875 385.003 -17.4483 393.403 46.5093C401.802 110.467 352.635 163.719 283.516 165.393Z" stroke="url(#paint8_linear_2065_861)" stroke-opacity="0.5" stroke-width="0.840568"/>
<path opacity="0.416667" d="M281.643 152.613C212.876 147.189 154.193 91.0043 150.506 27.1817C146.82 -36.6412 199.521 -84.0403 268.288 -78.6161C337.055 -73.1917 395.738 -17.0067 399.425 46.8161C403.111 110.639 350.41 158.037 281.643 152.613Z" stroke="url(#paint9_linear_2065_861)" stroke-opacity="0.5" stroke-width="0.840568"/>
<path opacity="0.458333" d="M280.743 140.295C212.862 128.024 158.75 66.7935 159.805 3.59353C160.86 -59.6062 216.683 -100.964 284.564 -88.6941C352.445 -76.4236 406.556 -15.1938 405.502 48.0058C404.447 111.206 348.625 152.565 280.743 140.295Z" stroke="url(#paint10_linear_2065_861)" stroke-opacity="0.5" stroke-width="0.840568"/>
<path opacity="0.5" d="M280.776 128.53C214.291 109.715 165.163 44.0756 170.949 -18.0186C176.735 -80.1129 235.257 -115.289 301.741 -96.4742C368.226 -77.6599 417.354 -12.0204 411.568 50.0739C405.782 112.168 347.26 147.344 280.776 128.53Z" stroke="url(#paint11_linear_2065_861)" stroke-opacity="0.5" stroke-width="0.840568"/>
<path opacity="0.541667" d="M281.692 117.402C217.091 92.3913 173.306 23.0091 183.778 -37.5055C194.25 -98.0199 255.041 -126.915 319.642 -101.904C384.243 -76.8939 428.029 -7.51223 417.558 53.0024C407.086 113.517 346.294 142.412 281.692 117.402Z" stroke="url(#paint12_linear_2065_861)" stroke-opacity="0.5" stroke-width="0.840568"/>
<path opacity="0.583333" d="M283.44 106.988C221.178 76.1711 183.041 3.7392 198.117 -54.7349C213.193 -113.209 275.82 -135.767 338.082 -104.951C400.344 -74.1337 438.481 -1.70178 423.405 56.7722C408.329 115.246 345.702 137.805 283.44 106.988Z" stroke="url(#paint13_linear_2065_861)" stroke-opacity="0.5" stroke-width="0.840568"/>
<path opacity="0.625" d="M285.956 97.3553C226.458 61.1596 194.221 -13.6118 213.784 -69.6003C233.347 -125.589 297.374 -141.798 356.873 -105.602C416.371 -69.4064 448.609 5.36544 429.046 61.3539C409.483 117.342 345.455 133.551 285.956 97.3553Z" stroke="url(#paint14_linear_2065_861)" stroke-opacity="0.5" stroke-width="0.840568"/>
<path opacity="0.666667" d="M289.177 88.5642C232.831 47.4501 206.685 -28.94 230.585 -82.0175C254.484 -135.095 319.479 -144.982 375.825 -103.869C432.171 -62.7546 458.318 13.636 434.418 66.7136C410.518 119.791 345.523 129.678 289.177 88.5642Z" stroke="url(#paint15_linear_2065_861)" stroke-opacity="0.5" stroke-width="0.840568"/>
<path opacity="0.708333" d="M293.032 80.6653C240.189 35.1218 220.269 -42.1614 248.321 -91.9256C276.374 -141.69 341.907 -145.323 394.75 -99.7793C447.593 -54.2359 467.513 23.0465 439.461 72.8108C411.408 122.575 345.875 126.209 293.032 80.6653Z" stroke="url(#paint16_linear_2065_861)" stroke-opacity="0.5" stroke-width="0.840568"/>
<path opacity="0.75" d="M297.446 73.6995C248.416 24.2387 234.797 -53.2129 266.788 -99.2871C298.779 -145.361 364.428 -142.846 413.458 -93.3853C462.487 -43.9245 476.106 33.5263 444.116 79.6005C412.125 125.675 346.475 123.16 297.446 73.6995Z" stroke="url(#paint17_linear_2065_861)" stroke-opacity="0.5" stroke-width="0.840568"/>
<path opacity="0.791667" d="M302.343 67.699C257.395 14.8513 250.094 -62.0533 285.778 -104.089C321.463 -146.125 386.816 -137.605 431.764 -84.7578C476.712 -31.9101 484.013 44.9952 448.329 87.0311C412.644 129.067 347.29 120.547 302.343 67.699Z" stroke="url(#paint18_linear_2065_861)" stroke-opacity="0.5" stroke-width="0.840568"/>
<path opacity="0.833333" d="M307.643 62.6859C267.002 6.99483 265.976 -68.6644 305.083 -106.345C344.19 -144.025 408.847 -129.676 449.488 -73.9853C490.128 -18.2941 491.155 57.3658 452.048 95.0463C412.941 132.727 348.283 118.377 307.643 62.6859Z" stroke="url(#paint19_linear_2065_861)" stroke-opacity="0.5" stroke-width="0.840568"/>
<path opacity="0.875" d="M313.266 58.6742C277.113 0.690793 282.263 -73.0457 324.495 -106.087C366.728 -139.128 430.302 -119.158 466.455 -61.1747C502.608 -3.19151 497.459 70.5446 455.227 103.586C412.994 136.627 349.419 116.657 313.266 58.6742Z" stroke="url(#paint20_linear_2065_861)" stroke-opacity="0.5" stroke-width="0.840568"/>
<path opacity="0.916667" d="M319.13 55.6653C287.6 -4.05636 298.769 -75.2193 343.808 -103.372C388.847 -131.524 450.968 -106.173 482.497 -46.4517C514.027 13.27 502.859 84.4332 457.82 112.586C412.781 140.739 350.659 115.387 319.13 55.6653Z" stroke="url(#paint21_linear_2065_861)" stroke-opacity="0.5" stroke-width="0.840568"/>
<path opacity="0.958333" d="M325.153 53.6551C298.338 -7.25365 315.317 -75.228 362.822 -98.2799C410.327 -121.331 470.644 -90.865 497.459 -29.9564C524.274 30.952 507.295 98.926 459.791 121.978C412.286 145.03 351.968 114.564 325.153 53.6551Z" stroke="url(#paint22_linear_2065_861)" stroke-opacity="0.5" stroke-width="0.840568"/>
<path d="M331.256 52.627C309.201 -8.92496 331.73 -73.1328 381.344 -90.9095C430.957 -108.686 489.135 -73.3961 511.19 -11.8443C533.244 49.7075 510.716 113.915 461.103 131.692C411.49 149.468 353.31 114.179 331.256 52.627Z" stroke="url(#paint23_linear_2065_861)" stroke-opacity="0.5" stroke-width="0.840568"/>
<g filter="url(#filter0_f_2065_861)">
<ellipse cx="663" cy="889" rx="743" ry="529" transform="rotate(-180 663 889)" fill="url(#paint24_linear_2065_861)" fill-opacity="0.8"/>
</g>
</g>
<defs>
<filter id="filter0_f_2065_861" x="-180" y="260" width="1686" height="1258" filterUnits="userSpaceOnUse" color-interpolation-filters="sRGB">
<feFlood flood-opacity="0" result="BackgroundImageFix"/>
<feBlend mode="normal" in="SourceGraphic" in2="BackgroundImageFix" result="shape"/>
<feGaussianBlur stdDeviation="50" result="effect1_foregroundBlur_2065_861"/>
</filter>
<linearGradient id="paint0_linear_2065_861" x1="336.039" y1="271.928" x2="163.103" y2="125.122" gradientUnits="userSpaceOnUse">
<stop stop-color="#3062DD"/>
<stop offset="0.5" stop-color="#211951"/>
</linearGradient>
<linearGradient id="paint1_linear_2065_861" x1="325.872" y1="259.345" x2="166.081" y2="93.5055" gradientUnits="userSpaceOnUse">
<stop stop-color="#3062DD"/>
<stop offset="0.5" stop-color="#211951"/>
</linearGradient>
<linearGradient id="paint2_linear_2065_861" x1="316.701" y1="246.332" x2="173" y2="62.655" gradientUnits="userSpaceOnUse">
<stop stop-color="#3062DD"/>
<stop offset="0.5" stop-color="#211951"/>
</linearGradient>
<linearGradient id="paint3_linear_2065_861" x1="308.556" y1="233.009" x2="183.766" y2="33.3691" gradientUnits="userSpaceOnUse">
<stop stop-color="#3062DD"/>
<stop offset="0.5" stop-color="#211951"/>
</linearGradient>
<linearGradient id="paint4_linear_2065_861" x1="301.456" y1="219.493" x2="198.066" y2="6.42819" gradientUnits="userSpaceOnUse">
<stop stop-color="#3062DD"/>
<stop offset="0.5" stop-color="#211951"/>
</linearGradient>
<linearGradient id="paint5_linear_2065_861" x1="295.41" y1="205.901" x2="215.368" y2="-17.4909" gradientUnits="userSpaceOnUse">
<stop stop-color="#3062DD"/>
<stop offset="0.5" stop-color="#211951"/>
</linearGradient>
<linearGradient id="paint6_linear_2065_861" x1="290.421" y1="192.35" x2="234.972" y2="-37.8922" gradientUnits="userSpaceOnUse">
<stop stop-color="#3062DD"/>
<stop offset="0.5" stop-color="#211951"/>
</linearGradient>
<linearGradient id="paint7_linear_2065_861" x1="286.48" y1="178.95" x2="256.088" y2="-54.5128" gradientUnits="userSpaceOnUse">
<stop stop-color="#3062DD"/>
<stop offset="0.5" stop-color="#211951"/>
</linearGradient>
<linearGradient id="paint8_linear_2065_861" x1="283.571" y1="165.81" x2="277.924" y2="-67.3333" gradientUnits="userSpaceOnUse">
<stop stop-color="#3062DD"/>
<stop offset="0.5" stop-color="#211951"/>
</linearGradient>
<linearGradient id="paint9_linear_2065_861" x1="281.667" y1="153.032" x2="299.776" y2="-76.5495" gradientUnits="userSpaceOnUse">
<stop stop-color="#3062DD"/>
<stop offset="0.5" stop-color="#211951"/>
</linearGradient>
<linearGradient id="paint10_linear_2065_861" x1="280.736" y1="140.714" x2="321.087" y2="-82.5134" gradientUnits="userSpaceOnUse">
<stop stop-color="#3062DD"/>
<stop offset="0.5" stop-color="#211951"/>
</linearGradient>
<linearGradient id="paint11_linear_2065_861" x1="280.737" y1="128.948" x2="341.469" y2="-85.6615" gradientUnits="userSpaceOnUse">
<stop stop-color="#3062DD"/>
<stop offset="0.5" stop-color="#211951"/>
</linearGradient>
<linearGradient id="paint12_linear_2065_861" x1="281.621" y1="117.816" x2="360.702" y2="-86.4493" gradientUnits="userSpaceOnUse">
<stop stop-color="#3062DD"/>
<stop offset="0.5" stop-color="#211951"/>
</linearGradient>
<linearGradient id="paint13_linear_2065_861" x1="283.335" y1="107.394" x2="378.71" y2="-85.3002" gradientUnits="userSpaceOnUse">
<stop stop-color="#3062DD"/>
<stop offset="0.5" stop-color="#211951"/>
</linearGradient>
<linearGradient id="paint14_linear_2065_861" x1="285.818" y1="97.7517" x2="395.518" y2="-82.5732" gradientUnits="userSpaceOnUse">
<stop stop-color="#3062DD"/>
<stop offset="0.5" stop-color="#211951"/>
</linearGradient>
<linearGradient id="paint15_linear_2065_861" x1="289.005" y1="88.9473" x2="411.222" y2="-78.5493" gradientUnits="userSpaceOnUse">
<stop stop-color="#3062DD"/>
<stop offset="0.5" stop-color="#211951"/>
</linearGradient>
<linearGradient id="paint16_linear_2065_861" x1="292.825" y1="81.0311" x2="425.951" y2="-73.4318" gradientUnits="userSpaceOnUse">
<stop stop-color="#3062DD"/>
<stop offset="0.5" stop-color="#211951"/>
</linearGradient>
<linearGradient id="paint17_linear_2065_861" x1="297.206" y1="74.0444" x2="439.846" y2="-67.352" gradientUnits="userSpaceOnUse">
<stop stop-color="#3062DD"/>
<stop offset="0.5" stop-color="#211951"/>
</linearGradient>
<linearGradient id="paint18_linear_2065_861" x1="302.071" y1="68.0192" x2="453.04" y2="-60.3821" gradientUnits="userSpaceOnUse">
<stop stop-color="#3062DD"/>
<stop offset="0.5" stop-color="#211951"/>
</linearGradient>
<linearGradient id="paint19_linear_2065_861" x1="307.341" y1="62.9776" x2="465.648" y2="-52.5469" gradientUnits="userSpaceOnUse">
<stop stop-color="#3062DD"/>
<stop offset="0.5" stop-color="#211951"/>
</linearGradient>
<linearGradient id="paint20_linear_2065_861" x1="312.935" y1="58.9326" x2="477.758" y2="-43.8354" gradientUnits="userSpaceOnUse">
<stop stop-color="#3062DD"/>
<stop offset="0.5" stop-color="#211951"/>
</linearGradient>
<linearGradient id="paint21_linear_2065_861" x1="318.774" y1="55.888" x2="489.434" y2="-34.2102" gradientUnits="userSpaceOnUse">
<stop stop-color="#3062DD"/>
<stop offset="0.5" stop-color="#211951"/>
</linearGradient>
<linearGradient id="paint22_linear_2065_861" x1="324.775" y1="53.8382" x2="500.709" y2="-23.6162" gradientUnits="userSpaceOnUse">
<stop stop-color="#3062DD"/>
<stop offset="0.5" stop-color="#211951"/>
</linearGradient>
<linearGradient id="paint23_linear_2065_861" x1="330.86" y1="52.7686" x2="511.585" y2="-11.9861" gradientUnits="userSpaceOnUse">
<stop stop-color="#3062DD"/>
<stop offset="0.5" stop-color="#211951"/>
</linearGradient>
<linearGradient id="paint24_linear_2065_861" x1="1406" y1="889" x2="-80.0001" y2="889" gradientUnits="userSpaceOnUse">
<stop stop-color="#3062DD"/>
<stop offset="1" stop-color="#211951" stop-opacity="0.1"/>
</linearGradient>
<clipPath id="clip0_2065_861">
<rect width="375" height="812" fill="white"/>
</clipPath>
</defs>
</svg>
