<svg width="22" height="22" viewBox="0 0 22 22" fill="none" xmlns="http://www.w3.org/2000/svg">
<path d="M2.90576 6.82031L10.9999 11.5045L19.0391 6.84778" stroke="#007AFF" stroke-width="1.3" stroke-linecap="round" stroke-linejoin="round"/>
<path d="M10.9999 19.8093V11.4951" stroke="#007AFF" stroke-width="1.3" stroke-linecap="round" stroke-linejoin="round"/>
<path d="M9.10244 2.2735L4.20745 4.99603C3.09828 5.61019 2.1908 7.15017 2.1908 8.41517V13.5944C2.1908 14.8594 3.09828 16.3993 4.20745 17.0135L9.10244 19.736C10.1474 20.3135 11.8616 20.3135 12.9066 19.736L17.8016 17.0135C18.9108 16.3993 19.8183 14.8594 19.8183 13.5944V8.41517C19.8183 7.15017 18.9108 5.61019 17.8016 4.99603L12.9066 2.2735C11.8524 1.68683 10.1474 1.68683 9.10244 2.2735Z" stroke="#007AFF" stroke-width="1.3" stroke-linecap="round" stroke-linejoin="round"/>
<path d="M15.5833 12.1366V8.78167L6.88416 3.7583" stroke="#007AFF" stroke-width="1.3" stroke-linecap="round" stroke-linejoin="round"/>
</svg>
