<svg width="23" height="22" viewBox="0 0 23 22" fill="none" xmlns="http://www.w3.org/2000/svg">
<path d="M13.6634 2.66797V11.0013C13.6634 11.918 12.9134 12.668 11.9967 12.668H2.83008V6.0013C2.83008 4.15964 4.32174 2.66797 6.16341 2.66797H13.6634Z" stroke="#007AFF" stroke-width="1.3" stroke-linecap="round" stroke-linejoin="round"/>
<path d="M19.4967 12.668V15.168C19.4967 16.5513 18.3801 17.668 16.9967 17.668H16.1634C16.1634 16.7513 15.4134 16.0013 14.4967 16.0013C13.5801 16.0013 12.8301 16.7513 12.8301 17.668H9.49675C9.49675 16.7513 8.74675 16.0013 7.83008 16.0013C6.91341 16.0013 6.16341 16.7513 6.16341 17.668H5.33008C3.94674 17.668 2.83008 16.5513 2.83008 15.168V12.668H11.9967C12.9134 12.668 13.6634 11.918 13.6634 11.0013V5.16797H15.1967C15.7967 5.16797 16.3467 5.49298 16.6467 6.00964L18.0718 8.5013H16.9967C16.5384 8.5013 16.1634 8.8763 16.1634 9.33464V11.8346C16.1634 12.293 16.5384 12.668 16.9967 12.668H19.4967Z" stroke="#007AFF" stroke-width="1.3" stroke-linecap="round" stroke-linejoin="round"/>
<path d="M9.4974 17.6667C9.4974 18.5871 8.7512 19.3333 7.83073 19.3333C6.91025 19.3333 6.16406 18.5871 6.16406 17.6667C6.16406 16.7462 6.91025 16 7.83073 16C8.7512 16 9.4974 16.7462 9.4974 17.6667Z" stroke="#007AFF" stroke-width="1.3" stroke-linecap="round" stroke-linejoin="round"/>
<path d="M16.1634 17.6667C16.1634 18.5871 15.4172 19.3333 14.4967 19.3333C13.5763 19.3333 12.8301 18.5871 12.8301 17.6667C12.8301 16.7462 13.5763 16 14.4967 16C15.4172 16 16.1634 16.7462 16.1634 17.6667Z" stroke="#007AFF" stroke-width="1.3" stroke-linecap="round" stroke-linejoin="round"/>
<path d="M19.4974 11V12.6667H16.9974C16.5391 12.6667 16.1641 12.2917 16.1641 11.8333V9.33333C16.1641 8.875 16.5391 8.5 16.9974 8.5H18.0724L19.4974 11Z" stroke="#007AFF" stroke-width="1.3" stroke-linecap="round" stroke-linejoin="round"/>
</svg>
