<svg width="23" height="22" viewBox="0 0 23 22" fill="none" xmlns="http://www.w3.org/2000/svg">
<path d="M14.2505 20.8545C14.003 20.8545 13.7738 20.717 13.6547 20.5062C13.5355 20.2862 13.5355 20.0295 13.6638 19.8095L14.6263 18.2054C14.8188 17.8845 15.2405 17.7745 15.5705 17.967C15.9005 18.1595 16.0013 18.5812 15.8088 18.9112L15.5613 19.3237C18.0913 18.7279 19.9888 16.4545 19.9888 13.7412C19.9888 13.3654 20.3005 13.0537 20.6763 13.0537C21.0522 13.0537 21.3638 13.3654 21.3638 13.7412C21.3547 17.6645 18.1647 20.8545 14.2505 20.8545Z" fill="white"/>
<path d="M2.33398 8.93717C1.95815 8.93717 1.64648 8.62551 1.64648 8.24967C1.64648 4.33551 4.83648 1.14551 8.75065 1.14551C8.99815 1.14551 9.22732 1.28301 9.34648 1.49384C9.46565 1.71384 9.46565 1.97051 9.33732 2.19051L8.37482 3.79467C8.18232 4.11551 7.76065 4.22551 7.43065 4.02384C7.10982 3.83134 6.99982 3.40967 7.20148 3.07967L7.44898 2.66717C4.90982 3.26301 3.02148 5.53634 3.02148 8.24967C3.02148 8.62551 2.70982 8.93717 2.33398 8.93717Z" fill="white"/>
<path d="M15.5335 7.52572L12.0868 5.66488C11.7201 5.47238 11.2893 5.47238 10.9226 5.66488L7.46681 7.52572C7.21931 7.66322 7.06348 7.92905 7.06348 8.22238C7.06348 8.52488 7.21931 8.79072 7.46681 8.92822L10.9135 10.7891C11.0968 10.8899 11.2985 10.9357 11.5001 10.9357C11.7018 10.9357 11.9035 10.8899 12.0868 10.7891L15.5335 8.92822C15.781 8.79072 15.9368 8.52488 15.9368 8.22238C15.9368 7.92905 15.781 7.66322 15.5335 7.52572Z" fill="white"/>
<path d="M10.345 11.4304L7.13667 9.82624C6.88917 9.70707 6.605 9.71624 6.36667 9.8629C6.1375 10.0096 6 10.2571 6 10.5321V13.5662C6 14.0887 6.29333 14.5654 6.76083 14.7946L9.96917 16.3987C10.0792 16.4537 10.1983 16.4812 10.3267 16.4812C10.4733 16.4812 10.6108 16.4446 10.7392 16.3621C10.9775 16.2154 11.115 15.9679 11.115 15.6929V12.6587C11.1058 12.1362 10.8217 11.6687 10.345 11.4304Z" fill="white"/>
<path d="M16.6239 9.8629C16.3856 9.71624 16.1014 9.70707 15.8539 9.82624L12.6456 11.4304C12.1781 11.6687 11.8848 12.1362 11.8848 12.6587V15.6929C11.8848 15.9679 12.0223 16.2154 12.2606 16.3621C12.3889 16.4446 12.5264 16.4812 12.6731 16.4812C12.7923 16.4812 12.9114 16.4537 13.0306 16.3987L16.2389 14.7946C16.7064 14.5562 16.9998 14.0887 16.9998 13.5662V10.5321C16.9998 10.2571 16.8623 10.0096 16.6239 9.8629Z" fill="white"/>
</svg>
