<svg width="23" height="22" viewBox="0 0 23 22" fill="none" xmlns="http://www.w3.org/2000/svg">
<path d="M6.64166 8.48828L11.5 11.3024L16.3217 8.50661" stroke="white" stroke-linecap="round" stroke-linejoin="round"/>
<path d="M11.5 16.2893V11.2935" stroke="white" stroke-linecap="round" stroke-linejoin="round"/>
<path d="M10.3633 5.76586L7.42998 7.39753C6.76998 7.7642 6.21997 8.69003 6.21997 9.45086V12.5584C6.21997 13.3192 6.76081 14.245 7.42998 14.6117L10.3633 16.2434C10.9867 16.5917 12.0133 16.5917 12.6458 16.2434L15.5792 14.6117C16.2392 14.245 16.7891 13.3192 16.7891 12.5584V9.4417C16.7891 8.68087 16.2483 7.75503 15.5792 7.38836L12.6458 5.7567C12.0133 5.40836 10.9867 5.40837 10.3633 5.76586Z" fill="white" fill-opacity="0.1" stroke="white" stroke-linecap="round" stroke-linejoin="round"/>
<path d="M20.6667 13.75C20.6667 17.2975 17.7975 20.1667 14.25 20.1667L15.2125 18.5625" stroke="white" stroke-linecap="round" stroke-linejoin="round"/>
<path d="M2.33331 8.25016C2.33331 4.70266 5.20248 1.8335 8.74998 1.8335L7.78749 3.43766" stroke="white" stroke-linecap="round" stroke-linejoin="round"/>
</svg>
