<svg width="22" height="22" viewBox="0 0 22 22" fill="none" xmlns="http://www.w3.org/2000/svg">
<path d="M8.07584 1.8335L4.75751 5.161" stroke="white" stroke-miterlimit="10" stroke-linecap="round" stroke-linejoin="round"/>
<path d="M13.9242 1.8335L17.2425 5.161" stroke="white" stroke-miterlimit="10" stroke-linecap="round" stroke-linejoin="round"/>
<path d="M1.83331 7.19564C1.83331 5.4998 2.74081 5.3623 3.86831 5.3623H18.1316C19.2591 5.3623 20.1666 5.4998 20.1666 7.19564C20.1666 9.16647 19.2591 9.02897 18.1316 9.02897H3.86831C2.74081 9.02897 1.83331 9.16647 1.83331 7.19564Z" fill="white" fill-opacity="0.1" stroke="white"/>
<path d="M8.94666 12.8335V16.0877" stroke="white" stroke-linecap="round"/>
<path d="M13.1633 12.8335V16.0877" stroke="white" stroke-linecap="round"/>
<path d="M3.20831 9.1665L4.50081 17.0865C4.79415 18.8648 5.49998 20.1665 8.12165 20.1665H13.6491C16.5 20.1665 16.9216 18.9198 17.2516 17.1965L18.7916 9.1665" stroke="white" stroke-linecap="round"/>
</svg>
