<svg width="22" height="22" viewBox="0 0 22 22" fill="none" xmlns="http://www.w3.org/2000/svg">
<path d="M17.6366 5.11501H17.27L14.1716 2.01668C13.9241 1.76918 13.5208 1.76918 13.2641 2.01668C13.0166 2.26418 13.0166 2.66751 13.2641 2.92418L15.455 5.11501H6.54498L8.73581 2.92418C8.98331 2.67668 8.98331 2.27335 8.73581 2.01668C8.48831 1.76918 8.08498 1.76918 7.82831 2.01668L4.73915 5.11501H4.37248C3.54748 5.11501 1.83331 5.11501 1.83331 7.46168C1.83331 8.35085 2.01665 8.93751 2.40165 9.32251C2.62165 9.55168 2.88748 9.67085 3.17165 9.73501C3.43748 9.79918 3.72165 9.80835 3.99665 9.80835H18.0033C18.2875 9.80835 18.5533 9.79001 18.81 9.73501C19.58 9.55168 20.1666 9.00168 20.1666 7.46168C20.1666 5.11501 18.4525 5.11501 17.6366 5.11501Z" fill="white"/>
<path d="M17.4625 11H4.46415C3.89581 11 3.46498 11.5042 3.55665 12.0633L4.32665 16.775C4.58331 18.3517 5.27081 20.1667 8.32331 20.1667H13.4658C16.555 20.1667 17.105 18.6175 17.435 16.885L18.3608 12.0908C18.4708 11.5225 18.04 11 17.4625 11ZM9.72581 16.9125C9.72581 17.27 9.44165 17.5542 9.09331 17.5542C8.73581 17.5542 8.45165 17.27 8.45165 16.9125V13.8875C8.45165 13.5392 8.73581 13.2458 9.09331 13.2458C9.44165 13.2458 9.72581 13.5392 9.72581 13.8875V16.9125ZM13.6491 16.9125C13.6491 17.27 13.365 17.5542 13.0075 17.5542C12.6591 17.5542 12.3658 17.27 12.3658 16.9125V13.8875C12.3658 13.5392 12.6591 13.2458 13.0075 13.2458C13.365 13.2458 13.6491 13.5392 13.6491 13.8875V16.9125Z" fill="white"/>
</svg>
