<svg width="23" height="22" viewBox="0 0 23 22" fill="none" xmlns="http://www.w3.org/2000/svg">
<path d="M13.6541 1.8335H9.34578C8.39245 1.8335 7.61328 2.6035 7.61328 3.55683V4.4185C7.61328 5.37183 8.38328 6.14183 9.33661 6.14183H13.6541C14.6074 6.14183 15.3774 5.37183 15.3774 4.4185V3.55683C15.3866 2.6035 14.6074 1.8335 13.6541 1.8335Z" fill="white"/>
<path d="M16.3031 4.41819C16.3031 5.87569 15.1115 7.06736 13.654 7.06736H9.34562C7.88812 7.06736 6.69646 5.87569 6.69646 4.41819C6.69646 3.90486 6.14646 3.58403 5.68812 3.82236C4.39562 4.50986 3.51562 5.87569 3.51562 7.44319V16.069C3.51562 18.324 5.35813 20.1665 7.61312 20.1665H15.3865C17.6415 20.1665 19.484 18.324 19.484 16.069V7.44319C19.484 5.87569 18.604 4.50986 17.3115 3.82236C16.8531 3.58403 16.3031 3.90486 16.3031 4.41819ZM14.5615 11.669L10.8948 15.3357C10.7573 15.4732 10.5831 15.5374 10.409 15.5374C10.2348 15.5374 10.0606 15.4732 9.92312 15.3357L8.54812 13.9607C8.28229 13.6949 8.28229 13.2549 8.54812 12.989C8.81396 12.7232 9.25396 12.7232 9.51979 12.989L10.409 13.8782L13.5898 10.6974C13.8556 10.4315 14.2956 10.4315 14.5615 10.6974C14.8273 10.9632 14.8273 11.4032 14.5615 11.669Z" fill="white"/>
</svg>
