<svg width="23" height="22" viewBox="0 0 23 22" fill="none" xmlns="http://www.w3.org/2000/svg">
<path d="M3.5 6.61512C3.5 5.17083 4.67083 4 6.11512 4H7.20943C7.68155 4 8.1007 4.30211 8.25 4.75C8.3993 5.19789 8.81845 5.5 9.29057 5.5H13.7094C14.1816 5.5 14.6007 5.19789 14.75 4.75C14.8993 4.30211 15.3184 4 15.7906 4H17.0943C18.6991 4 20 5.30092 20 6.90569V16.48C20 18.6891 18.2091 20.48 16 20.48H7.5C5.29086 20.48 3.5 18.6891 3.5 16.48V6.61512Z" fill="white" fill-opacity="0.1"/>
<path d="M9.03418 13.4748L10.4092 14.8498L14.0758 11.1831" stroke="white" stroke-linecap="round" stroke-linejoin="round"/>
<path d="M9.66665 5.50016H13.3333C15.1666 5.50016 15.1666 4.5835 15.1666 3.66683C15.1666 1.8335 14.25 1.8335 13.3333 1.8335H9.66665C8.74998 1.8335 7.83331 1.8335 7.83331 3.66683C7.83331 5.50016 8.74998 5.50016 9.66665 5.50016Z" stroke="white" stroke-miterlimit="10" stroke-linecap="round" stroke-linejoin="round"/>
<path d="M15.1667 3.68506C18.2192 3.85006 19.75 4.97756 19.75 9.16673V14.6667C19.75 18.3334 18.8333 20.1667 14.25 20.1667H8.75C4.16667 20.1667 3.25 18.3334 3.25 14.6667V9.16673C3.25 4.98673 4.78083 3.85006 7.83333 3.68506" stroke="white" stroke-miterlimit="10" stroke-linecap="round" stroke-linejoin="round"/>
</svg>
