<svg width="22" height="22" viewBox="0 0 22 22" fill="none" xmlns="http://www.w3.org/2000/svg">
<path d="M19.7083 9.99183V3.7585C19.7083 2.3835 19.1217 1.8335 17.6642 1.8335H13.9608C12.5033 1.8335 11.9167 2.3835 11.9167 3.7585V9.99183C11.9167 11.3668 12.5033 11.9168 13.9608 11.9168H17.6642C19.1217 11.9168 19.7083 11.3668 19.7083 9.99183Z" fill="white"/>
<path d="M10.0833 12.0085V18.2418C10.0833 19.6168 9.49667 20.1668 8.03917 20.1668H4.33584C2.87834 20.1668 2.29167 19.6168 2.29167 18.2418V12.0085C2.29167 10.6335 2.87834 10.0835 4.33584 10.0835H8.03917C9.49667 10.0835 10.0833 10.6335 10.0833 12.0085Z" fill="white"/>
<path d="M19.7083 18.2417V15.675C19.7083 14.3 19.1217 13.75 17.6642 13.75H13.9608C12.5033 13.75 11.9167 14.3 11.9167 15.675V18.2417C11.9167 19.6167 12.5033 20.1667 13.9608 20.1667H17.6642C19.1217 20.1667 19.7083 19.6167 19.7083 18.2417Z" fill="white"/>
<path d="M10.0833 6.32516V3.7585C10.0833 2.3835 9.49667 1.8335 8.03917 1.8335H4.33584C2.87834 1.8335 2.29167 2.3835 2.29167 3.7585V6.32516C2.29167 7.70016 2.87834 8.25016 4.33584 8.25016H8.03917C9.49667 8.25016 10.0833 7.70016 10.0833 6.32516Z" fill="white"/>
</svg>
