<svg width="23" height="22" viewBox="0 0 23 22" fill="none" xmlns="http://www.w3.org/2000/svg">
<path d="M18.925 6.36134C18.925 6.85634 18.6592 7.30551 18.2375 7.53467L16.6425 8.39634L15.2858 9.12051L12.4717 10.6422C12.1692 10.8072 11.8392 10.8897 11.5 10.8897C11.1608 10.8897 10.8308 10.8072 10.5283 10.6422L4.76251 7.53467C4.34085 7.30551 4.07501 6.85634 4.07501 6.36134C4.07501 5.86634 4.34085 5.41717 4.76251 5.18801L6.56835 4.21634L8.00751 3.43717L10.5283 2.08051C11.1333 1.75051 11.8667 1.75051 12.4717 2.08051L18.2375 5.18801C18.6592 5.41717 18.925 5.86634 18.925 6.36134Z" fill="white"/>
<path d="M9.57501 11.7243L4.21251 9.04763C3.80001 8.8368 3.32335 8.8643 2.92918 9.10263C2.53501 9.34096 2.30585 9.76263 2.30585 10.221V15.2901C2.30585 16.1701 2.79168 16.9585 3.58001 17.3526L8.94251 20.0293C9.12585 20.121 9.32751 20.1668 9.52918 20.1668C9.76751 20.1668 10.0058 20.1026 10.2167 19.9651C10.6108 19.7268 10.84 19.3051 10.84 18.8468V13.7776C10.8492 12.9068 10.3633 12.1185 9.57501 11.7243Z" fill="white"/>
<path d="M20.6942 10.2202V15.2893C20.6942 16.1602 20.2083 16.9485 19.42 17.3427L14.0575 20.0285C13.8742 20.1202 13.6725 20.166 13.4708 20.166C13.2325 20.166 12.9942 20.1018 12.7742 19.9643C12.3892 19.726 12.1508 19.3043 12.1508 18.846V13.786C12.1508 12.906 12.6367 12.1177 13.425 11.7235L15.3958 10.7427L16.7708 10.0552L18.7875 9.04684C19.2 8.83601 19.6767 8.85434 20.0708 9.10184C20.4558 9.34018 20.6942 9.76184 20.6942 10.2202Z" fill="white"/>
<path d="M16.6425 8.39667L15.2858 9.12083L6.56833 4.21667L8.0075 3.4375L16.4225 8.18583C16.5142 8.24083 16.5875 8.31417 16.6425 8.39667Z" fill="white"/>
<path d="M16.7708 10.0557V12.1365C16.7708 12.5123 16.4592 12.824 16.0833 12.824C15.7075 12.824 15.3958 12.5123 15.3958 12.1365V10.7432L16.7708 10.0557Z" fill="white"/>
</svg>
