<svg width="23" height="22" viewBox="0 0 23 22" fill="none" xmlns="http://www.w3.org/2000/svg">
<path d="M3.40585 6.82031L11.5 11.5045L19.5392 6.84778" stroke="white" stroke-linecap="round" stroke-linejoin="round"/>
<path d="M11.5 19.8093V11.4951" stroke="white" stroke-linecap="round" stroke-linejoin="round"/>
<path d="M9.6025 2.2735L4.70751 4.99603C3.59834 5.61019 2.69086 7.15017 2.69086 8.41517V13.5944C2.69086 14.8594 3.59834 16.3993 4.70751 17.0135L9.6025 19.736C10.6475 20.3135 12.3617 20.3135 13.4067 19.736L18.3017 17.0135C19.4109 16.3993 20.3183 14.8594 20.3183 13.5944V8.41517C20.3183 7.15017 19.4109 5.61019 18.3017 4.99603L13.4067 2.2735C12.3525 1.68683 10.6475 1.68683 9.6025 2.2735Z" fill="white" fill-opacity="0.1" stroke="white" stroke-linecap="round" stroke-linejoin="round"/>
<path d="M16.0833 12.1366V8.78167L7.38419 3.7583" stroke="white" stroke-linecap="round" stroke-linejoin="round"/>
</svg>
