<svg width="22" height="22" viewBox="0 0 22 22" fill="none" xmlns="http://www.w3.org/2000/svg">
<path d="M18.4257 8.45165C16.7665 8.45165 16.0882 7.27832 16.9132 5.83915C17.3898 5.00498 17.1057 3.94165 16.2715 3.46498L14.6857 2.55748C13.9615 2.12665 13.0265 2.38332 12.5957 3.10748L12.4948 3.28165C11.6698 4.72082 10.3132 4.72082 9.47898 3.28165L9.37815 3.10748C8.96565 2.38332 8.03065 2.12665 7.30648 2.55748L5.72065 3.46498C4.88648 3.94165 4.60232 5.01415 5.07898 5.84832C5.91315 7.27832 5.23482 8.45165 3.57565 8.45165C2.62232 8.45165 1.83398 9.23081 1.83398 10.1933V11.8066C1.83398 12.76 2.61315 13.5483 3.57565 13.5483C5.23482 13.5483 5.91315 14.7216 5.07898 16.1608C4.60232 16.995 4.88648 18.0583 5.72065 18.535L7.30648 19.4425C8.03065 19.8733 8.96565 19.6166 9.39648 18.8925L9.49732 18.7183C10.3223 17.2791 11.679 17.2791 12.5132 18.7183L12.614 18.8925C13.0448 19.6166 13.9798 19.8733 14.704 19.4425L16.2898 18.535C17.124 18.0583 17.4082 16.9858 16.9315 16.1608C16.0973 14.7216 16.7757 13.5483 18.4348 13.5483C19.3882 13.5483 20.1765 12.7691 20.1765 11.8066V10.1933C20.1673 9.23998 19.3882 8.45165 18.4257 8.45165ZM11.0007 13.9791C9.35982 13.9791 8.02148 12.6408 8.02148 11C8.02148 9.35915 9.35982 8.02082 11.0007 8.02082C12.6415 8.02082 13.9798 9.35915 13.9798 11C13.9798 12.6408 12.6415 13.9791 11.0007 13.9791Z" fill="white"/>
</svg>
