<svg width="23" height="22" viewBox="0 0 23 22" fill="none" xmlns="http://www.w3.org/2000/svg">
<path d="M13.168 2.67634V10.2938C13.168 11.2288 12.4071 11.9897 11.4721 11.9897H3.08464C2.58047 11.9897 2.16797 11.5772 2.16797 11.073V5.21551C2.16797 3.34551 3.68047 1.83301 5.55047 1.83301H12.3155C12.7921 1.83301 13.168 2.20884 13.168 2.67634Z" fill="white"/>
<path d="M20.043 14.208C20.2996 14.208 20.5013 14.4097 20.5013 14.6663V15.583C20.5013 17.1047 19.273 18.333 17.7513 18.333C17.7513 16.8205 16.5138 15.583 15.0013 15.583C13.4888 15.583 12.2513 16.8205 12.2513 18.333H10.418C10.418 16.8205 9.18047 15.583 7.66797 15.583C6.15547 15.583 4.91797 16.8205 4.91797 18.333C3.3963 18.333 2.16797 17.1047 2.16797 15.583V13.7497C2.16797 13.2455 2.58047 12.833 3.08464 12.833H11.793C13.058 12.833 14.0846 11.8063 14.0846 10.5413V5.49967C14.0846 4.99551 14.4971 4.58301 15.0013 4.58301H15.7713C16.4313 4.58301 17.0363 4.94051 17.3663 5.50884L17.953 6.53551C18.0355 6.68217 17.9255 6.87467 17.7513 6.87467C16.4863 6.87467 15.4596 7.90134 15.4596 9.16634V11.9163C15.4596 13.1813 16.4863 14.208 17.7513 14.208H20.043Z" fill="white"/>
<path d="M7.66732 20.1667C8.67984 20.1667 9.50065 19.3459 9.50065 18.3333C9.50065 17.3208 8.67984 16.5 7.66732 16.5C6.6548 16.5 5.83398 17.3208 5.83398 18.3333C5.83398 19.3459 6.6548 20.1667 7.66732 20.1667Z" fill="white"/>
<path d="M15.0013 20.1667C16.0138 20.1667 16.8346 19.3459 16.8346 18.3333C16.8346 17.3208 16.0138 16.5 15.0013 16.5C13.9888 16.5 13.168 17.3208 13.168 18.3333C13.168 19.3459 13.9888 20.1667 15.0013 20.1667Z" fill="white"/>
<path d="M20.5007 11.4858V12.8333H17.7507C17.2465 12.8333 16.834 12.4208 16.834 11.9167V9.16667C16.834 8.6625 17.2465 8.25 17.7507 8.25H18.9332L20.2623 10.5783C20.4182 10.8533 20.5007 11.165 20.5007 11.4858Z" fill="white"/>
</svg>
