<svg width="23" height="22" viewBox="0 0 23 22" fill="none" xmlns="http://www.w3.org/2000/svg">
<path d="M14.0846 1.8335V11.0002C14.0846 12.0085 13.2596 12.8335 12.2513 12.8335H2.16797V5.50016C2.16797 3.47433 3.8088 1.8335 5.83464 1.8335H14.0846Z" fill="white" fill-opacity="0.1" stroke="white" stroke-linecap="round" stroke-linejoin="round"/>
<path d="M20.5013 12.8335V15.5835C20.5013 17.1052 19.273 18.3335 17.7513 18.3335H16.8346C16.8346 17.3252 16.0096 16.5002 15.0013 16.5002C13.993 16.5002 13.168 17.3252 13.168 18.3335H9.5013C9.5013 17.3252 8.6763 16.5002 7.66797 16.5002C6.65964 16.5002 5.83464 17.3252 5.83464 18.3335H4.91797C3.3963 18.3335 2.16797 17.1052 2.16797 15.5835V12.8335H12.2513C13.2596 12.8335 14.0846 12.0085 14.0846 11.0002V4.5835H15.7713C16.4313 4.5835 17.0363 4.94101 17.3663 5.50934L18.9338 8.25016H17.7513C17.2471 8.25016 16.8346 8.66266 16.8346 9.16683V11.9168C16.8346 12.421 17.2471 12.8335 17.7513 12.8335H20.5013Z" stroke="white" stroke-linecap="round" stroke-linejoin="round"/>
<path d="M9.50065 18.3333C9.50065 19.3459 8.67984 20.1667 7.66732 20.1667C6.6548 20.1667 5.83398 19.3459 5.83398 18.3333C5.83398 17.3208 6.6548 16.5 7.66732 16.5C8.67984 16.5 9.50065 17.3208 9.50065 18.3333Z" fill="white" fill-opacity="0.1" stroke="white" stroke-linecap="round" stroke-linejoin="round"/>
<path d="M16.8346 18.3333C16.8346 19.3459 16.0138 20.1667 15.0013 20.1667C13.9888 20.1667 13.168 19.3459 13.168 18.3333C13.168 17.3208 13.9888 16.5 15.0013 16.5C16.0138 16.5 16.8346 17.3208 16.8346 18.3333Z" fill="white" fill-opacity="0.1" stroke="white" stroke-linecap="round" stroke-linejoin="round"/>
<path d="M20.5007 11V12.8333H17.7507C17.2465 12.8333 16.834 12.4208 16.834 11.9167V9.16667C16.834 8.6625 17.2465 8.25 17.7507 8.25H18.9332L20.5007 11Z" stroke="white" stroke-linecap="round" stroke-linejoin="round"/>
</svg>
