<svg width="23" height="22" viewBox="0 0 23 22" fill="none" xmlns="http://www.w3.org/2000/svg">
<path d="M9.66797 14.208C9.29214 14.208 8.98047 14.5197 8.98047 14.8955V16.2705C8.98047 16.6463 9.29214 16.958 9.66797 16.958C10.0438 16.958 10.3555 16.6463 10.3555 16.2705V14.8955C10.3555 14.5197 10.0438 14.208 9.66797 14.208Z" fill="white"/>
<path d="M20.6654 19.479H19.7487V9.14816C19.7487 8.57983 19.492 8.04816 19.0429 7.69983L12.6262 2.71316C11.9662 2.19066 11.0312 2.19066 10.3712 2.71316L3.95453 7.69983C3.50536 8.04816 3.2487 8.57983 3.2487 9.139L3.20286 19.479H2.33203C1.9562 19.479 1.64453 19.7815 1.64453 20.1665C1.64453 20.5423 1.9562 20.854 2.33203 20.854H20.6654C21.0412 20.854 21.3529 20.5423 21.3529 20.1665C21.3529 19.7815 21.0412 19.479 20.6654 19.479ZM10.1237 6.18733H12.8737C13.2495 6.18733 13.5612 6.499 13.5612 6.87483C13.5612 7.25066 13.2495 7.56233 12.8737 7.56233H10.1237C9.74786 7.56233 9.4362 7.25066 9.4362 6.87483C9.4362 6.499 9.74786 6.18733 10.1237 6.18733ZM16.082 19.479H6.91536V11.4582C6.91536 10.6973 7.52953 10.0832 8.29036 10.0832H14.707C15.4679 10.0832 16.082 10.6973 16.082 11.4582V19.479Z" fill="white"/>
</svg>
